<svg xmlns="http://www.w3.org/2000/svg" width="89.688" height="89.68" viewBox="0 0 89.688 89.68"><defs><style>.a{fill:#288731;}</style></defs><g transform="translate(0 -0.022)"><g transform="translate(0 0.022)"><path class="a" d="M44.792.022a44.91,44.91,0,0,0-4.813.259,42.33,42.33,0,0,0-4.34.693q-.414.087-.829.183A44.846,44.846,0,0,0,12.689,13.543q-.841.862-1.646,1.775A44.9,44.9,0,0,0,76.9,76.292q.843-.862,1.646-1.775A44.894,44.894,0,0,0,44.792.022ZM14.683,15.788c.236-.245.482-.48.723-.718.278-.274.555-.549.84-.814.25-.233.507-.458.763-.685.289-.256.576-.512.872-.759.26-.22.528-.431.795-.644.3-.239.6-.479.907-.709.272-.205.549-.4.828-.6.31-.221.621-.449.937-.655.283-.192.569-.377.856-.561.32-.205.642-.407.967-.6q.439-.262.883-.515.5-.283,1-.552.449-.239.9-.468c.341-.172.685-.338,1.031-.5.3-.142.611-.284.919-.419.352-.15.708-.3,1.064-.449.31-.127.618-.251.931-.371.362-.138.729-.266,1.1-.4.313-.109.626-.218.943-.322.373-.12.748-.23,1.125-.34.316-.091.629-.186.946-.271.121-.031.242-.057.364-.088A37.133,37.133,0,0,0,24.8,19.884a50.265,50.265,0,0,1-10.254-3.946C14.6,15.885,14.64,15.833,14.683,15.788ZM12.531,18.2a52,52,0,0,0,11.357,4.519,77.657,77.657,0,0,0-3.021,20.7H2.924A41.812,41.812,0,0,1,12.531,18.2Zm0,53.441A41.817,41.817,0,0,1,2.924,46.414H20.867a77.649,77.649,0,0,0,3.021,20.7A52.031,52.031,0,0,0,12.531,71.638ZM33.994,85.4c-.3-.076-.615-.175-.926-.266-.379-.111-.759-.221-1.133-.343-.316-.1-.627-.211-.938-.32-.368-.127-.736-.257-1.1-.4-.311-.118-.618-.242-.926-.368l-1.07-.449q-.458-.2-.911-.416c-.349-.165-.7-.332-1.048-.506-.3-.15-.6-.3-.9-.462-.338-.181-.673-.367-1.009-.558-.3-.166-.584-.337-.872-.51-.329-.2-.652-.4-.976-.609-.284-.181-.569-.365-.849-.554-.319-.216-.635-.44-.947-.664-.274-.2-.548-.392-.817-.6-.31-.233-.614-.474-.916-.717-.265-.211-.528-.421-.787-.638-.3-.248-.588-.507-.878-.765-.254-.226-.51-.449-.759-.679-.286-.266-.563-.543-.841-.817-.241-.238-.486-.473-.723-.717-.043-.046-.085-.094-.129-.139A50.228,50.228,0,0,1,24.8,69.959,37.142,37.142,0,0,0,34.36,85.489C34.238,85.458,34.116,85.433,33.994,85.4Zm9.3,1.3c-6.4-.91-12.017-7.593-15.549-17.463A76.051,76.051,0,0,1,43.3,67.409V86.7Zm0-22.286a78.809,78.809,0,0,0-16.489,1.966A74.865,74.865,0,0,1,23.86,46.414H43.3Zm0-20.995H23.86a74.85,74.85,0,0,1,2.947-19.968A78.835,78.835,0,0,0,43.3,25.419Zm0-20.995A75.972,75.972,0,0,1,27.746,20.6C31.278,10.726,36.892,4.043,43.3,3.133V22.426ZM77.052,18.2A41.817,41.817,0,0,1,86.66,43.421H68.717a77.649,77.649,0,0,0-3.021-20.7A52.049,52.049,0,0,0,77.052,18.2ZM55.577,4.434c.314.078.627.177.938.268.379.111.759.221,1.133.343.316.1.627.211.938.32.368.127.736.257,1.1.4.311.118.618.242.926.368l1.07.449q.458.2.911.416c.349.165.7.332,1.048.506.3.15.6.3.9.462.338.181.673.367,1.009.558.3.166.584.337.872.51.329.2.652.4.976.609.284.181.569.365.849.554.319.215.633.438.946.663.275.2.549.394.82.6.308.232.611.473.914.715.263.21.528.419.787.638.3.248.588.507.878.765.254.226.51.449.759.679.286.266.563.543.841.817.241.238.486.473.723.717.043.046.085.094.129.139a50.228,50.228,0,0,1-10.254,3.948A37.14,37.14,0,0,0,55.212,4.344C55.333,4.375,55.456,4.4,55.577,4.434Zm-9.289-1.3c6.4.91,12.017,7.593,15.549,17.463a76.051,76.051,0,0,1-15.549,1.83Zm0,22.286a78.809,78.809,0,0,0,16.489-1.966,74.865,74.865,0,0,1,2.947,19.968H46.288Zm0,20.995H65.724a74.85,74.85,0,0,1-2.947,19.968h0a78.834,78.834,0,0,0-16.489-1.966Zm0,40.288V67.409a75.973,75.973,0,0,1,15.549,1.83C58.305,79.108,52.692,85.792,46.288,86.7ZM74.9,74.047c-.236.244-.48.479-.721.717-.278.274-.557.551-.843.817-.248.232-.5.449-.759.681-.29.257-.579.515-.875.763-.262.218-.528.429-.795.642-.3.239-.6.479-.907.709-.272.205-.549.4-.828.6-.31.221-.621.449-.937.655-.283.192-.569.377-.856.56q-.48.31-.968.6c-.3.175-.585.346-.88.515q-.5.283-1,.552-.449.239-.9.468c-.341.172-.685.338-1.031.5-.3.142-.611.284-.919.419-.352.15-.708.3-1.064.449-.31.126-.618.251-.929.37-.365.139-.732.269-1.1.4-.311.109-.623.218-.938.32-.374.121-.748.232-1.13.341-.313.093-.627.186-.943.271-.121.031-.242.057-.364.088A37.133,37.133,0,0,0,64.781,69.95,50.263,50.263,0,0,1,75.035,73.9C74.986,73.95,74.944,74,74.9,74.047Zm2.152-2.409A52,52,0,0,0,65.7,67.118a77.657,77.657,0,0,0,3.021-20.7H86.66A41.811,41.811,0,0,1,77.052,71.638Z" transform="translate(0 -0.022)"/></g></g></svg>