<?xml version="1.0" encoding="utf-8"?>
<!-- Generator: Adobe Illustrator 24.1.1, SVG Export Plug-In . SVG Version: 6.00 Build 0)  -->
<svg version="1.1" id="Слой_1" xmlns="http://www.w3.org/2000/svg" xmlns:xlink="http://www.w3.org/1999/xlink" x="0px" y="0px"
	 viewBox="0 0 940.6 763" style="enable-background:new 0 0 940.6 763;" xml:space="preserve">
<style type="text/css">
	.st0{fill:url(#SVGID_1_);}
	.st1{fill:url(#SVGID_2_);}
	.st2{fill:url(#SVGID_3_);}
	.st3{fill:url(#SVGID_4_);}
	.st4{fill:#F0C141;}
	.st5{fill:#8F8F8F;}
	.st6{fill:#F0F0F0;}
	.st7{fill:#FFFFFF;}
	.st8{fill:url(#SVGID_5_);}
	.st9{fill:#CCCCCC;}
	.st10{fill:#F5F7FF;}
	.st11{fill:#E6E6E6;}
	.st12{fill:#78C2FF;}
	.st13{fill:#F3F3F3;}
	.st14{fill:url(#SVGID_6_);}
	.st15{fill:url(#SVGID_7_);}
	.st16{fill:url(#SVGID_8_);}
	.st17{fill:url(#SVGID_9_);}
	.st18{fill:url(#SVGID_10_);}
	.st19{fill:url(#SVGID_11_);}
	.st20{fill:#EEA886;}
	.st21{fill:#DB9C7C;}
	.st22{fill:#323657;}
	.st23{fill:#4DA8F2;}
	.st24{fill:#EFAA88;}
	.st25{fill:#424773;}
	.st26{fill:#292C47;}
	.st27{fill:#D88A51;}
	.st28{fill:#E2D2CA;}
	.st29{fill:#DFE1E8;}
	.st30{fill:#DE9673;}
	.st31{fill:#2F4563;}
	.st32{fill:#1E2D40;}
	.st33{fill:#23344A;}
	.st34{fill:#41608A;}
	.st35{fill:#EEA987;}
	.st36{fill:#EB4747;}
	.st37{fill:#464240;}
	.st38{fill:#A77860;}
	.st39{fill:#6E6760;}
	.st40{fill:#5C544D;}
	.st41{fill:#3C4145;}
	.st42{fill:#33373B;}
	.st43{fill:#FCCCA2;}
	.st44{fill:#D6D6D6;}
	.st45{fill:#C98462;}
	.st46{fill:#DE9D7D;}
	.st47{fill:#1D3B54;}
	.st48{fill:#434343;}
	.st49{fill:#CF8C6C;}
	.st50{fill:#EEF0F7;}
	.st51{fill:#E0E0E0;}
	.st52{fill:#B8B8B8;}
	.st53{fill:#D9D9D9;}
	.st54{fill:url(#SVGID_12_);}
	.st55{fill:url(#SVGID_13_);}
</style>
<g>
	<g>
		<g>
			
				<linearGradient id="SVGID_1_" gradientUnits="userSpaceOnUse" x1="-12607.6787" y1="-21.6164" x2="-12469.5879" y2="-21.6164" gradientTransform="matrix(-0.9986 -5.380000e-02 -5.380000e-02 0.9986 -12292.8213 -305.3032)">
				<stop  offset="0" style="stop-color:#40D5E6"/>
				<stop  offset="1" style="stop-color:#5577FF"/>
			</linearGradient>
			<path class="st0" d="M285.8,355c9,19.5,14,38,7.4,46.3c-0.4,0.5-0.8,0.9-1.3,1.3c-5.1,4.5-15.1,4.6-31.9-2.1
				c-44.9-17.7-47-48.3-56.1-78.2c-8.9-29.5-40.2-24.5-41-24.4C235.8,272.6,270.6,321.9,285.8,355z"/>
			<g>
				
					<linearGradient id="SVGID_2_" gradientUnits="userSpaceOnUse" x1="-3540.0222" y1="3612.7368" x2="-3540.0222" y2="3515.6372" gradientTransform="matrix(0.7495 -0.662 0.662 0.7495 564.1615 -4638.1396)">
					<stop  offset="0" style="stop-color:#40D5E6"/>
					<stop  offset="1" style="stop-color:#5577FF"/>
				</linearGradient>
				<path class="st1" d="M293.2,401.3c-0.4,0.5-0.8,0.9-1.3,1.3c-8.4-5.1-24.6-15.8-32.2-27.9c-3.6-5.7-6.6-12.1-9.8-18.9
					c-6-12.8-12.3-26.1-23.2-36.3l1.2-1.3c11.2,10.4,17.5,23.8,23.6,36.8c3.2,6.7,6.2,13.1,9.7,18.7
					C268.7,385.5,285,396.3,293.2,401.3z"/>
			</g>
		</g>
		<g>
			
				<linearGradient id="SVGID_3_" gradientUnits="userSpaceOnUse" x1="-12594.4629" y1="-63.298" x2="-12529.0967" y2="-63.298" gradientTransform="matrix(-0.9986 -5.380000e-02 -5.380000e-02 0.9986 -12292.8213 -305.3032)">
				<stop  offset="0" style="stop-color:#40D5E6"/>
				<stop  offset="1" style="stop-color:#5577FF"/>
			</linearGradient>
			<path class="st2" d="M278,363c-0.5,1.3-0.9,2-0.9,2.1c-0.1-0.7-0.3-1.4-0.4-2.1c-6-30.7-14-33.9-38-60.7
				c-24.5-27.4-10.4-53-10.4-53C310.5,273,283.6,349.3,278,363z"/>
			<g>
				
					<linearGradient id="SVGID_4_" gradientUnits="userSpaceOnUse" x1="-1866.6007" y1="3042.2449" x2="-1866.6007" y2="2946.9019" gradientTransform="matrix(0.8707 -0.4917 0.4917 0.8707 413.8755 -3206.5154)">
					<stop  offset="0" style="stop-color:#40D5E6"/>
					<stop  offset="1" style="stop-color:#5577FF"/>
				</linearGradient>
				<path class="st3" d="M278,363c-0.5,1.3-0.9,2-0.9,2.1c-0.1-0.7-0.3-1.4-0.4-2.1c2.7-26.5-13.3-57.6-18.4-63.2
					c-5.2-5.8-8.4-13.7-9.6-16.7c-0.2-0.5-0.4-1-0.5-1.1l1.2-0.7c0.1,0.2,0.2,0.5,0.5,1.2c1.2,2.9,4.3,10.7,9.4,16.3
					C265.7,306,280.5,337.2,278,363z"/>
			</g>
		</g>
		<g>
			<g>
				<g>
					<g>
						<g>
							<g>
								<path class="st4" d="M744.3,236.9l-10.1-16.6c-0.8-1.4-0.4-3.1,1-4c1.4-0.8,3.1-0.4,4,1l7.2,11.7l19-11.3
									c1.4-0.8,3.1-0.4,4,1c0.8,1.4,0.4,3.1-1,4L744.3,236.9z"/>
							</g>
						</g>
					</g>
				</g>
			</g>
			<g>
				<path class="st4" d="M751.1,262.5c-20.1,0-36.4-16.3-36.4-36.4s16.3-36.4,36.4-36.4c20.1,0,36.4,16.3,36.4,36.4
					S771.2,262.5,751.1,262.5z M751.1,194.8c-17.2,0-31.2,14-31.2,31.2s14,31.2,31.2,31.2c17.2,0,31.2-14,31.2-31.2
					S768.3,194.8,751.1,194.8z"/>
			</g>
		</g>
		<g>
			<g>
				<g>
					<g>
						<g>
							<g>
								<path class="st4" d="M631.5,183.3l-6.3-10.3c-0.5-0.8-0.2-1.9,0.6-2.5c0.8-0.5,1.9-0.2,2.5,0.6l4.4,7.3l11.8-7
									c0.8-0.5,1.9-0.2,2.4,0.6c0.5,0.8,0.2,1.9-0.6,2.4L631.5,183.3z"/>
							</g>
						</g>
					</g>
				</g>
			</g>
			<g>
				<path class="st4" d="M635.7,199.1c-12.4,0-22.5-10.1-22.5-22.5c0-12.4,10.1-22.5,22.5-22.5s22.5,10.1,22.5,22.5
					C658.2,189,648.1,199.1,635.7,199.1z M635.7,157.3c-10.6,0-19.3,8.7-19.3,19.3s8.7,19.3,19.3,19.3s19.3-8.7,19.3-19.3
					S646.3,157.3,635.7,157.3z"/>
			</g>
		</g>
		<g>
			<g>
				<g>
					<g>
						<g>
							<g>
								<path class="st4" d="M515.7,145.5l-9.6-15.7c-0.8-1.3-0.4-3,0.9-3.8c1.3-0.8,3-0.4,3.8,0.9l6.8,11.1l18.1-10.7
									c1.3-0.8,3-0.3,3.7,1c0.8,1.3,0.3,3-1,3.7L515.7,145.5z"/>
							</g>
						</g>
					</g>
				</g>
			</g>
			<g>
				<path class="st4" d="M522.1,169.7c-19,0-34.5-15.5-34.5-34.5c0-19,15.5-34.5,34.5-34.5c19,0,34.5,15.5,34.5,34.5
					C556.7,154.2,541.2,169.7,522.1,169.7z M522.1,105.6c-16.3,0-29.6,13.3-29.6,29.6c0,16.3,13.3,29.6,29.6,29.6
					c16.3,0,29.6-13.3,29.6-29.6C551.7,118.9,538.4,105.6,522.1,105.6z"/>
			</g>
		</g>
		<g>
			<g>
				<g>
					<g>
						<g>
							<g>
								<path class="st4" d="M414.1,183.2l-6.3-10.4c-0.5-0.9-0.3-2,0.6-2.5c0.9-0.5,2-0.3,2.5,0.6l4.5,7.3l11.9-7.1
									c0.9-0.5,2-0.2,2.5,0.6c0.5,0.9,0.2,2-0.6,2.5L414.1,183.2z"/>
							</g>
						</g>
					</g>
				</g>
			</g>
			<g>
				<path class="st4" d="M418.3,199.2c-12.6,0-22.8-10.2-22.8-22.8c0-12.6,10.2-22.8,22.8-22.8c12.6,0,22.8,10.2,22.8,22.8
					C441.1,189,430.9,199.2,418.3,199.2z M418.3,156.8c-10.8,0-19.6,8.8-19.6,19.6c0,10.8,8.8,19.6,19.6,19.6
					c10.8,0,19.6-8.8,19.6-19.6C437.9,165.6,429.1,156.8,418.3,156.8z"/>
			</g>
		</g>
		<g>
			<g>
				<g>
					<g>
						<g>
							<g>
								<path class="st4" d="M324.9,133.3l-7.9-13c-0.7-1.1-0.3-2.5,0.8-3.1c1.1-0.7,2.5-0.3,3.1,0.8l5.6,9.2l14.9-8.8
									c1.1-0.6,2.5-0.3,3.1,0.8c0.6,1.1,0.3,2.5-0.8,3.1L324.9,133.3z"/>
							</g>
						</g>
					</g>
				</g>
			</g>
			<g>
				<path class="st4" d="M330.2,153.3c-15.8,0-28.6-12.8-28.6-28.6c0-15.8,12.8-28.6,28.6-28.6c15.8,0,28.6,12.8,28.6,28.6
					C358.8,140.5,346,153.3,330.2,153.3z M330.2,100.3c-13.5,0-24.5,11-24.5,24.5c0,13.5,11,24.5,24.5,24.5
					c13.5,0,24.5-11,24.5-24.5C354.7,111.2,343.7,100.3,330.2,100.3z"/>
			</g>
		</g>
		<g>
			<g>
				<g>
					<g>
						<g>
							<g>
								<path class="st4" d="M223.7,197.9l-8.8-14.4c-0.7-1.2-0.3-2.7,0.8-3.4c1.2-0.7,2.7-0.3,3.4,0.8l6.2,10.2l16.6-9.8
									c1.2-0.7,2.7-0.3,3.4,0.9c0.7,1.2,0.3,2.7-0.9,3.4L223.7,197.9z"/>
							</g>
						</g>
					</g>
				</g>
			</g>
			<g>
				<path class="st4" d="M229.6,220.2c-17.5,0-31.7-14.2-31.7-31.7c0-17.5,14.2-31.7,31.7-31.7c17.5,0,31.7,14.2,31.7,31.7
					C261.3,206,247.1,220.2,229.6,220.2z M229.6,161.3c-15,0-27.2,12.2-27.2,27.2c0,15,12.2,27.2,27.2,27.2
					c15,0,27.2-12.2,27.2-27.2C256.7,173.5,244.6,161.3,229.6,161.3z"/>
			</g>
		</g>
		<g>
			<g>
				<g>
					<g>
						<g>
							<g>
								<path class="st4" d="M707,138.6l-5-8.2c-0.4-0.7-0.2-1.6,0.5-2c0.7-0.4,1.6-0.2,2,0.5l3.5,5.8l9.4-5.6
									c0.7-0.4,1.6-0.2,2,0.5c0.4,0.7,0.2,1.6-0.5,2L707,138.6z"/>
							</g>
						</g>
					</g>
				</g>
			</g>
			<g>
				<path class="st4" d="M710.3,151.3c-9.9,0-18-8.1-18-18s8.1-18,18-18c9.9,0,18,8.1,18,18S720.3,151.3,710.3,151.3z M710.3,117.8
					c-8.5,0-15.4,6.9-15.4,15.4c0,8.5,6.9,15.4,15.4,15.4c8.5,0,15.4-6.9,15.4-15.4C725.8,124.8,718.8,117.8,710.3,117.8z"/>
			</g>
		</g>
		<g>
			
				<rect x="454.9" y="487.6" transform="matrix(-1 -1.224647e-16 1.224647e-16 -1 959.447 1126.0131)" class="st5" width="49.7" height="150.9"/>
		</g>
		<g>
			<path class="st6" d="M326.5,560.2h306.4c33.9,0,61.3-27.5,61.3-61.3v-180c0-33.9-27.5-61.3-61.3-61.3H326.5
				c-33.9,0-61.3,27.5-61.3,61.3v180C265.2,532.8,292.7,560.2,326.5,560.2z"/>
		</g>
		<g>
			
				<rect x="282" y="225.4" transform="matrix(-1 -1.224647e-16 1.224647e-16 -1 959.4466 738.1939)" class="st7" width="395.4" height="287.4"/>
		</g>
		<g>
			<linearGradient id="SVGID_5_" gradientUnits="userSpaceOnUse" x1="282.0115" y1="242.7351" x2="677.4351" y2="242.7351">
				<stop  offset="0" style="stop-color:#40D5E6"/>
				<stop  offset="1" style="stop-color:#5577FF"/>
			</linearGradient>
			<polygon class="st8" points="282,260.1 677.4,260.1 677.4,225.4 282,225.4 			"/>
		</g>
		<g>
			<path class="st9" d="M629.3,534.5c0,7.6,7.3,13.8,16.3,13.8s16.3-6.2,16.3-13.8c0-7.6-7.3-13.8-16.3-13.8
				S629.3,526.9,629.3,534.5z"/>
		</g>
		<rect x="368" y="632.8" class="st9" width="223.5" height="11.4"/>
		<path class="st10" d="M348.9,249.3h-44.4c-3.3,0-6-2.7-6-6v-1.1c0-3.3,2.7-6,6-6h44.4c3.3,0,6,2.7,6,6v1.1
			C354.9,246.6,352.2,249.3,348.9,249.3z"/>
		<rect x="311" y="381.1" class="st11" width="207" height="7.1"/>
		<rect x="311" y="393.9" class="st11" width="153.6" height="7.1"/>
		<rect x="311" y="421.7" class="st11" width="97.4" height="7.1"/>
		<rect x="311" y="434.5" class="st11" width="174.9" height="7.1"/>
		<rect x="311" y="465.2" class="st11" width="163.9" height="7.1"/>
		<rect x="311" y="478" class="st11" width="200.1" height="7.1"/>
		<rect x="300.9" y="381.1" class="st12" width="5.2" height="19.9"/>
		<rect x="300.9" y="421.7" class="st12" width="5.2" height="19.9"/>
		<rect x="300.9" y="465.2" class="st12" width="5.2" height="19.9"/>
		<g>
			<g>
				<path class="st12" d="M579.7,494.1h-2.5c-7.2,0-13-5.8-13-13v-2.5c0-7.2,5.8-13,13-13h2.5c7.2,0,13,5.8,13,13v2.5
					C592.7,488.2,586.9,494.1,579.7,494.1z"/>
			</g>
			<g>
				<g>
					<g>
						<path class="st13" d="M577.6,486.1l-7.2-6.3c-0.6-0.5-0.7-1.4-0.1-2c0.5-0.6,1.4-0.7,2-0.1l5.1,4.4l7.3-8.1
							c0.5-0.6,1.4-0.6,2-0.1c0.6,0.5,0.6,1.4,0.1,2L577.6,486.1z"/>
					</g>
				</g>
			</g>
		</g>
		<g>
			<g>
				<g>
					<path class="st12" d="M586.3,450.6h-15.5c-3.6,0-6.5-2.9-6.5-6.5v-15.5c0-3.6,2.9-6.5,6.5-6.5h15.5c3.6,0,6.5,2.9,6.5,6.5v15.5
						C592.7,447.7,589.8,450.6,586.3,450.6z M570.7,423.9c-2.6,0-4.7,2.1-4.7,4.7v15.5c0,2.6,2.1,4.7,4.7,4.7h15.5
						c2.6,0,4.7-2.1,4.7-4.7v-15.5c0-2.6-2.1-4.7-4.7-4.7H570.7z"/>
				</g>
			</g>
		</g>
		<g>
			<g>
				<g>
					<path class="st12" d="M629.2,494.1h-15.5c-3.6,0-6.5-2.9-6.5-6.5V472c0-3.6,2.9-6.5,6.5-6.5h15.5c3.6,0,6.5,2.9,6.5,6.5v15.5
						C635.7,491.2,632.8,494.1,629.2,494.1z M613.6,467.4c-2.6,0-4.7,2.1-4.7,4.7v15.5c0,2.6,2.1,4.7,4.7,4.7h15.5
						c2.6,0,4.7-2.1,4.7-4.7V472c0-2.6-2.1-4.7-4.7-4.7H613.6z"/>
				</g>
			</g>
		</g>
		<g>
			<g>
				<path class="st12" d="M622.6,450.6h-2.5c-7.2,0-13-5.8-13-13v-2.5c0-7.2,5.8-13,13-13h2.5c7.2,0,13,5.8,13,13v2.5
					C635.7,444.8,629.8,450.6,622.6,450.6z"/>
			</g>
			<g>
				<g>
					<g>
						<path class="st13" d="M620.5,442.7l-7.2-6.3c-0.6-0.5-0.7-1.4-0.1-2c0.5-0.6,1.4-0.7,2-0.1l5.1,4.4l7.3-8.1
							c0.5-0.6,1.4-0.6,2-0.1c0.6,0.5,0.6,1.4,0.1,2L620.5,442.7z"/>
					</g>
				</g>
			</g>
		</g>
		<g>
			<g>
				<g>
					<path class="st12" d="M629.2,407.2h-15.5c-3.6,0-6.5-2.9-6.5-6.5v-15.5c0-3.6,2.9-6.5,6.5-6.5h15.5c3.6,0,6.5,2.9,6.5,6.5v15.5
						C635.7,404.3,632.8,407.2,629.2,407.2z M613.6,380.5c-2.6,0-4.7,2.1-4.7,4.7v15.5c0,2.6,2.1,4.7,4.7,4.7h15.5
						c2.6,0,4.7-2.1,4.7-4.7v-15.5c0-2.6-2.1-4.7-4.7-4.7H613.6z"/>
				</g>
			</g>
		</g>
		<g>
			<g>
				<path class="st12" d="M579.7,407.2h-2.5c-7.2,0-13-5.8-13-13v-2.5c0-7.2,5.8-13,13-13h2.5c7.2,0,13,5.8,13,13v2.5
					C592.7,401.4,586.9,407.2,579.7,407.2z"/>
			</g>
			<g>
				<g>
					<g>
						<path class="st13" d="M577.6,399.2l-7.2-6.3c-0.6-0.5-0.7-1.4-0.1-2c0.5-0.6,1.4-0.7,2-0.1l5.1,4.4l7.3-8.1
							c0.5-0.6,1.4-0.6,2-0.1c0.6,0.5,0.6,1.4,0.1,2L577.6,399.2z"/>
					</g>
				</g>
			</g>
		</g>
		<g>
			
				<linearGradient id="SVGID_6_" gradientUnits="userSpaceOnUse" x1="-5876.6084" y1="520.9586" x2="-5798.54" y2="520.9586" gradientTransform="matrix(-1 0 0 1 -5633.6338 0)">
				<stop  offset="0" style="stop-color:#40D5E6"/>
				<stop  offset="1" style="stop-color:#5577FF"/>
			</linearGradient>
			<path class="st14" d="M236.2,417.8c-6.7-3.2-13.4,18.2-13.4,18.2c-11.4,15.1-27.4-5-25.9,17.6c2.7,39.5-45.5,12.4-23.3,53.7
				c22.3,41.3-19.7,23.3-5.8,56.6c13.8,33.3-4.1,73,16.7,56.7c0,0,18.3-40.2,37.2-52.6c18.9-12.4-11.3-27.2-5.4-44.1
				c8.6-24.5,29.3-23.6,14.4-49.9C215.8,447.6,259,428.7,236.2,417.8z"/>
			<g>
				<path class="st7" d="M177.9,605.5c9-6.3,19.6-50.6,20.2-76.9c0.3-13.5,4.3-19.1,7.8-24.1c3.4-4.7,6.3-8.8,4.6-18.2
					c-3.2-18,5.3-25.7,5.4-25.8l-1-1.1c-0.4,0.3-9.2,8.3-5.8,27.2c1.6,8.8-1,12.5-4.3,17.1c-3.5,4.9-7.8,11-8.1,24.9
					c-0.7,28.3-11.5,70-19.6,75.7L177.9,605.5z"/>
			</g>
			<g>
				
					<linearGradient id="SVGID_7_" gradientUnits="userSpaceOnUse" x1="-5819.3389" y1="564.5211" x2="-5748.7407" y2="564.5211" gradientTransform="matrix(-1 0 0 1 -5633.6338 0)">
					<stop  offset="0" style="stop-color:#40D5E6"/>
					<stop  offset="1" style="stop-color:#5577FF"/>
				</linearGradient>
				<path class="st15" d="M159,592.6c-0.9-1.9-1.7-3.9-2.7-6c-5.2-10.9-9.7-12.7-17.3-15.6c-1.8-0.7-3.9-1.5-6.2-2.6
					c-10.8-4.9-8.7-12-6.9-18.4c0.3-0.9,0.5-1.8,0.7-2.6c1-3.7-0.9-5.6-3.6-8.4c-2.1-2.1-4.6-4.7-6.6-8.8c-2.2-4.5-1.1-6.9,0.2-8.2
					c2.7-2.6,9.1-2.1,15.1,1.1l0,0c1.9,1,3.4,2.6,5,4.3c3.8,4,8.6,9,20.6,9c6.8,0,10.6,1,12.5,3.2c2.2,2.5,1.8,6.2,1.2,11.3
					c-0.2,1.8-0.4,3.8-0.6,6c-0.8,13,6.8,22.3,6.9,22.4c4.6,5.4,10.2,16.7,7.8,23.7c-1,2.9-3.3,4.8-6.8,5.5
					c-1.4,0.3-2.7,0.4-3.8,0.4C166.1,608.8,163.1,601.8,159,592.6z M130.9,524.4c-5.3-2.9-11.1-3.5-13.3-1.4
					c-1.7,1.6-0.9,4.4,0.1,6.5c1.9,3.9,4.2,6.3,6.3,8.4c2.9,3,5.2,5.3,4,9.8c-0.2,0.9-0.5,1.8-0.8,2.7c-1.8,6.3-3.6,12.3,6.1,16.6
					c2.3,1,4.3,1.8,6.2,2.6c7.6,3,12.7,5,18.1,16.4c1,2.1,1.9,4.1,2.7,6.1c4.7,10.6,7.5,17,17.7,14.9c2.9-0.6,4.8-2.1,5.7-4.5
					c2.1-6.1-3-16.9-7.5-22.3c-0.3-0.4-8.1-9.9-7.3-23.5c0.1-2.2,0.4-4.2,0.6-6c0.5-4.7,0.9-8.2-0.8-10.2c-1.6-1.8-5.1-2.6-11.4-2.7
					c-12.6-0.1-17.6-5.3-21.6-9.5C134,526.7,132.6,525.3,130.9,524.4L130.9,524.4z"/>
			</g>
			<g>
				
					<linearGradient id="SVGID_8_" gradientUnits="userSpaceOnUse" x1="-5813.3042" y1="574.7874" x2="-5760.3154" y2="574.7874" gradientTransform="matrix(-1 0 0 1 -5633.6338 0)">
					<stop  offset="0" style="stop-color:#40D5E6"/>
					<stop  offset="1" style="stop-color:#5577FF"/>
				</linearGradient>
				<path class="st16" d="M178.2,617.4l1.5-0.1c-0.1-1.4-2-34.4-15.2-44.1c-14.5-10.6-19.1-22-21.3-29.6c-2.6-9-15.7-11.4-16.2-11.5
					l-0.3,1.5c0.1,0,12.7,2.3,15,10.5c2.2,7.9,7,19.6,21.9,30.4C176.3,583.7,178.2,617.1,178.2,617.4z"/>
			</g>
			
				<linearGradient id="SVGID_9_" gradientUnits="userSpaceOnUse" x1="-5832.4395" y1="532.1467" x2="-5770.729" y2="532.1467" gradientTransform="matrix(-1 0 0 1 -5633.6338 0)">
				<stop  offset="0" style="stop-color:#40D5E6"/>
				<stop  offset="1" style="stop-color:#5577FF"/>
			</linearGradient>
			<path class="st17" d="M147.9,451.1c9.4-3.2,7.5,14.9,11.4,28.4c4,13.4,44.3,5.9,27.4,39.5s21.4,11.2,9.9,40.6
				c-11.4,29.4-1,60.7-13.4,52.8c-12.4-8-7-44.9-19.9-49.3c-12.9-4.4-15-9.5-2.2-21.5c12.8-11.9-33.6-23.8-22.1-47.9
				C150.4,469.5,137,454.8,147.9,451.1z"/>
			<g>
				<path class="st7" d="M177.4,610.9c1.2-5,11.3-49.2,1.9-54.6c-8.3-4.7-8.1-23-6.8-40.3c1.1-15.3-18.5-22.5-19.4-22.8l-0.5,1.4
					c0.2,0.1,19.4,7.1,18.4,21.3c-1.3,17.8-1.5,36.6,7.6,41.7c7.2,4.1,0.6,39.6-2.6,52.9L177.4,610.9z"/>
			</g>
			
				<linearGradient id="SVGID_10_" gradientUnits="userSpaceOnUse" x1="149.9938" y1="620.6622" x2="206.9392" y2="620.6622" gradientTransform="matrix(1 0 0 1 6.0278 0)">
				<stop  offset="0" style="stop-color:#FF9340"/>
				<stop  offset="1" style="stop-color:#FFCE45"/>
			</linearGradient>
			<polygon class="st18" points="213,595.2 199.5,646.2 169.5,646.2 156,595.2 			"/>
			
				<linearGradient id="SVGID_11_" gradientUnits="userSpaceOnUse" x1="149.9938" y1="620.6622" x2="206.9392" y2="620.6622" gradientTransform="matrix(1 0 0 1 6.0278 0)">
				<stop  offset="0" style="stop-color:#C97332"/>
				<stop  offset="1" style="stop-color:#FFCE45"/>
			</linearGradient>
			<path class="st19" d="M213,595.2c0,0-29.6,5.6-29.6,51h-13.9l-13.4-51H213z"/>
		</g>
		<g>
			<g>
				<g>
					<g>
						<path class="st20" d="M448.5,561.3c0,0,1,1.7,1.2,3.1c0.1,1.1,1,2.7,1.4,3.6c0.4,0.9,1.7,5,1.7,6.1c0,0.4-1,3.2-0.8,4.1
							c0.1,0.9,0.6,2.6-0.1,2.7c-0.8,0.1-1.7-1.3-1.7-1.3s0.1,0.8-0.6,1.1c-1.3,0.6-2,0.1-2,0.1s-0.5,0.9-1.1,1
							c-1.3,0.3-2-0.3-2-0.3s-0.6,0.5-1.5,0.5c-1.2,0-1.7-1-1.7-1s-1.5,0.3-1.9-0.4c-0.4-0.7-0.4-1.4-0.5-2.1
							c-0.2-0.6,0-6.3,1.9-10.4c1.9-4.1-0.5-8-0.5-8L448.5,561.3z"/>
					</g>
				</g>
			</g>
			<g>
				<g>
					<path class="st21" d="M450.4,579c0,0,0.1-5.1-1.2-6.2c-1.3-1.1-1.5,0.8-1.5,0.8s0.2-1.8-1.3-2.1c-1.5-0.2-1.5,1.9-1.5,1.9
						s-0.2-1.4-1.8-1.1c-1.5,0.3-1.2,2.1-1.2,2.1s-1.5-1.7-2.4-0.1c-1.6,2.8-0.1,6.2-0.1,6.2s0.5,0.8,1.9,0.4c0,0,1,2,3.2,0.6
						c0,0,2.2,1.2,3.1-0.7C447.6,580.7,450,581.9,450.4,579z"/>
				</g>
			</g>
			<path class="st22" d="M465.7,488.2c0,0-8.7,29-11.6,39.7c-0.9,3.4-3.2,35.4-3.5,36.6c-0.4,1.3-11.4,3.1-11.4,3.1s1.3-40,1.5-42.2
				c0.1-2.2,12.2-46.9,15.7-48.5c2.6-1.2,4-0.2,7.3,2.2C468.2,482.5,465.7,488.2,465.7,488.2z"/>
			<g>
				
					<rect x="549" y="440.9" transform="matrix(0.8367 -0.5476 0.5476 0.8367 -150.3639 379.2971)" class="st23" width="23.8" height="1.8"/>
			</g>
			<path class="st24" d="M573.4,442c0,0-0.2,1.1-0.5,1.6c0,0-0.7,0.8-1.1,1.4c-0.1,0.2-0.2,0.3-0.3,0.5c-0.3,0.5-0.7,1.6-1.6,2.6
				c-0.9,1-4.6,4-4.6,4l-3.2-2.7l-3.3-1.5c0,0,1.8-8,2.6-9c0.1-0.1,0.2-0.2,0.2-0.3c0.7-0.8,1.6-1,2.1-1.4c0.2-0.1,1.8-1.3,2.5-1.2
				c0.8,0.2,1.3,0.7,1.5,1.3c0,0,1.6,0.5,2.2,1.4c0,0,1.5,0.4,2,1.8C571.9,440.5,573.4,441.1,573.4,442z"/>
			<g>
				<g>
					<path class="st25" d="M458.6,685.9c0,0-0.8,5.5-0.9,6.3c-0.1,0.8-8.8-0.5-8.8-0.5l-0.7-6.5
						C448.2,685.2,457.6,685.2,458.6,685.9z"/>
				</g>
			</g>
			<g>
				<g>
					<path class="st26" d="M457.8,691.6c0,0,2.8,3.3,5.4,4.8c2.7,1.4,6.9,2,8.4,3.5c1.1,1.1,4.2,5.7-6.9,5.6
						c-11.1-0.1-16.4,0.7-17.6-1.1c-1.2-1.8,1.7-13.1,1.7-13.1S451.5,692.1,457.8,691.6z"/>
				</g>
			</g>
			<g>
				<g>
					<path class="st25" d="M521.1,685.9c0,0-0.8,5.5-0.9,6.3c-0.1,0.8-8.8-0.5-8.8-0.5l-0.7-6.5C510.7,685.2,520,685.2,521.1,685.9z
						"/>
				</g>
			</g>
			<g>
				<g>
					<path class="st26" d="M520.3,691.6c0,0,2.8,3.3,5.4,4.8c2.7,1.4,12.5,2.6,14.1,4.1c1.1,1.1,3,5.4-12.6,5
						c-11.1-0.3-16.4,0.7-17.6-1.1c-1.2-1.8,1.7-13.1,1.7-13.1S513.8,692.2,520.3,691.6z"/>
				</g>
			</g>
			<g>
				<g>
					<path class="st26" d="M465.9,544.6c0,0-8.2,13-7.6,24.8c0.6,11.8-3,24.6-4.2,36.9c-1.4,13.7-7,46.1-7.2,53.4
						c-0.2,7.3,0.9,30.7,0.9,30.7l11.2,0.3c0,0,9.4-56.7,11.9-62.5c2.4-5.8,14.6-47,15-51.6C486.3,572,465.9,544.6,465.9,544.6z"/>
				</g>
			</g>
			<g>
				<g>
					<path class="st26" d="M509,546.4c0,0,6.2,32.2,7,39.4c0.8,7.2,1.4,34.8,1.8,39.3s3.8,58.7,4.9,65.6h-14.4c0,0-11-39.5-11-58.2
						c0-18.7-8.5-40.7-14-53c-5.5-12.3-18.1-12.6-21.5-35.5C461.7,544,504.4,539.1,509,546.4z"/>
				</g>
			</g>
			<g>
				<g>
					<path class="st20" d="M479.5,435.3c0,0,11-4.1,16.1,4.3c5.1,8.4,4.6,25.1-1,27.2c-5.5,2.1-13.9,1-16.7-4.3
						c-2.8-5.2-5.4-12.8-5.3-17.9C472.8,439.5,476.6,436.7,479.5,435.3z"/>
				</g>
			</g>
			<g>
				<g>
					<path class="st20" d="M493.4,467.1c0,0-0.5,3,0.3,4.4c0.8,1.5-14.2,1.5-14.2,1.5s-1.2-8-3.5-14.7
						C473.7,451.6,493.4,467.1,493.4,467.1z"/>
				</g>
			</g>
			<g>
				<g>
					<path class="st27" d="M476,458.3c0,0,1,1.7,5.3,1c4.2-0.7,9.4-6.3,11.1-6.9c1.8-0.6,1.8-1.7,1.8-1.7l1.1,1.6l1.9,0.1
						c0,0-1.7-5,0.9-7.1c2.6-2.1-2.7-16.3-16.2-11.5c0,0-10.4,2.9-10,8.8C472.1,448.7,473.6,455.4,476,458.3z"/>
				</g>
			</g>
			<g>
				<g>
					<path class="st28" d="M494.6,471.3c0,0,0-2.8-1.3-3.1c-1.3-0.3-14-1.5-15.5-0.9v3.3C477.8,470.6,480.8,472.5,494.6,471.3z"/>
				</g>
			</g>
			<g>
				<g>
					<path class="st20" d="M493.9,448.7c-0.2-1-2.8-3.8-3.7-0.8c-1,3,1.5,7.1,2.8,6.8C494.3,454.3,494.5,451.2,493.9,448.7z"/>
				</g>
			</g>
			<g>
				<g>
					<path class="st22" d="M515.6,475.6c-8.7-1.1-21-4.2-21-4.2l-16.8-0.7c0,0-15.5,3.4-21.5,6.2c-0.6,0.3-0.6,13.8-2.2,17.3l5,10.6
						c0,0,2.9,21.1,3.5,30.5c0.3,4.3-6,40.4-6,40.4s6.7,2,18.2,3.3c11.5,1.3,40.2-0.5,40.4-1.8c0.2-1.4-5.6-50.6-5.8-53.1
						c-0.4-3.9,1.3-24.7,1.3-24.7c2.7-2.1,26-12.9,32.3-18.5c1.7-1.5,8.9-8.5,10.9-10.9c7.2-8.5,13.2-15.9,13.9-17.5
						c0.8-0.9-8-5.7-8.8-5.9c-0.7-0.2-10.3,12.5-14,16.6c-1.7,1.8-8.6,6.9-8.6,6.9S521.1,475.9,515.6,475.6z"/>
				</g>
			</g>
			<g>
				<g>
					<path class="st27" d="M476.4,436.2c0,0-14,1.1-0.4,22.1L476.4,436.2z"/>
				</g>
			</g>
			<polygon class="st29" points="571.3,436 572.5,434.3 570.4,434.6 			"/>
		</g>
		<g>
			<path class="st30" d="M290.7,536.8c0,0,6.8,0.4,8.7,1.5c1.9,1.1,14.8-3,15-3.9c0.2-0.9,0-1.4,0-1.4h-25.3L290.7,536.8z"/>
			<g>
				<path class="st30" d="M260.1,506.8c0,0-2.2,17.1,0,19.3c8.3,8.6,39.1,7.9,39.1,7.9l0,3.5c0,0-46.8,5.8-51.2-3.2
					c-5.2-10.9-3.2-28.7-3.2-28.7L260.1,506.8z"/>
			</g>
			<g>
				<polygon class="st31" points="244.7,686.9 247.5,683.7 242.5,678.5 238.2,681.4 				"/>
			</g>
			<g>
				<path class="st32" d="M238.2,681.4c0,0,5.7,4.3,7.3,4.5c1.6,0.2,2.3,0.9,2.2,3.3c-0.2,2.4,2.3,12.7,4.1,12.8s7.7,0.2,8.8,4.1
					c1.1,3.9-18.9,3.1-20.2-0.1c-1.2-3.2-9.9-18.9-8.8-20.1C232.6,684.7,235.3,681.8,238.2,681.4z"/>
			</g>
			<g>
				<path class="st33" d="M275,559.1c0,0,37.4,65.2,22.2,78.7c-6,5.3-11.7,10.1-19.9,17.2c-4.4,3.8-9.7,8.1-15.9,14.7l-0.3,0.3
					c-4.5,4.7-8.2,8.6-9.3,9.8c0,0-0.1,0.1-0.1,0.1l-0.1,0.1l-4.2,4l-6.1-5.4c0,0,6.9-9.6,10.8-16.9c5.5-10.3,14.7-22.5,19-25.9
					c7.3-5.8,9.3-6.9,9.3-12.5c0-6-34.3-39.2-34.3-39.2s-5-20.8,6.9-26.3C264.5,552.4,275,559.1,275,559.1z"/>
			</g>
			<path class="st34" d="M246.4,697c0,0-0.2-3,0.3-4.9c0.5-1.9-7.7-0.8-7.7-0.8s-1.1,8-0.8,9.9C238.5,702.9,246.4,697,246.4,697z"/>
			<g>
				<path class="st31" d="M248,692.1l-11.1,2c0,0-0.8-14.2-0.7-25.1c0.2-11.7-0.4-20.9,3.1-30.2c3.3-8.7,2.6-12,2.9-18
					c0.3-5.9-2.9-36.6-2.9-36.6s-3.8-13.7,5-23.4c8.6-9.4,30.8,0,30.8,0s-4.6,41.8-15.7,67.7c-3.1,7.3-1.4,11.8-5.4,23.1
					C253.9,651.6,247.9,676.3,248,692.1z"/>
			</g>
			<g>
				<path class="st35" d="M257.7,478.1c-0.6,1-1,2.2-1.3,3.6c-0.3,1.3-0.5,2.6-0.6,3.8c-0.3,2.7-0.2,4.9-0.2,4.9s-14.8-3.2-12.4-6.7
					c2.4-3.5,1-14,1-14S259.6,474.9,257.7,478.1z"/>
			</g>
			<g>
				<path class="st20" d="M266,449.5c0,0,3.8,3.3,2.1,12.8c0,0,0.8,7.6,2,8.9c1.2,1.3-3.1,1.8-3.6,2.8c-0.4,1-1.3,5.4-4.3,8.1
					c-3,2.7-17.7-5.4-18.4-10c-0.7-4.6-10.9-24.2,5.2-25.1C265.2,446.2,266,449.5,266,449.5z"/>
			</g>
			<g>
				<path class="st36" d="M276.2,519.7c-0.3,1,0.8,15.6,0.7,16.8c-0.6,6.9,1.2,17.4,1.9,21.2c0.2,0.9,0.3,1.3,0.3,1.3
					c-16,7.8-38.3,7.2-38.3,7.2c0.1-0.6,3.2-8.1,3.3-8.7c1.3-9.4,3.3-13.7,2.7-20.1l0,0c-0.3-3.6-1.2-7.3-3.1-11.9
					c-5.4-13.4-5.1-22.3-4.3-29.6c0.9-7.3,3.1-11.5,3.1-11.5l13.5,1.5c2.9,3.2,5.4,4.9,13.6,12.1C278.4,505.6,279.9,508,276.2,519.7
					z"/>
			</g>
			<g>
				<path class="st33" d="M237.7,699c0,0,7.8-2.2,8.1-2.4c0.2-0.2,0.3-0.7,1.4-0.3c1.1,0.4,1.5,2.1,2.6,2.6
					c1.1,0.5,7.5,2.4,11.1,4.2c1.3,0.6,6.7,2.7,7.5,4.4c0.8,1.7,0.5,4.3-8.8,3.7c-9.3-0.6-19.5,0.7-21.5-0.3
					C235.9,709.8,237.2,701.7,237.7,699z"/>
			</g>
			<g>
				<path class="st37" d="M268.5,458.9c0,0,1.8-19.7-17.3-16.2c-19.1,3.5-9.3,25.1-6.7,32.1c0,0-0.3-10.9,8.9-11.3
					C262.6,463.2,264.5,461.1,268.5,458.9z"/>
			</g>
			<g>
				<path class="st35" d="M251.9,460.8c-1.2-2-5.1-0.9-4.7,2.1c0.5,3.1,3.6,6.1,4.7,4.6C253,466.1,253.6,463.7,251.9,460.8z"/>
			</g>
			<g>
				<path class="st35" d="M252.3,499.6c0,0-1.6,16.9,0.6,19.2c8.3,8.6,41.1,8.7,41.1,8.7l1.6,4.9c0,0-48.7,3.3-53.1-5.8
					c-5.2-10.9-3.2-28.7-3.2-28.7L252.3,499.6z"/>
			</g>
			<path class="st37" d="M245.1,447.6c0,0-7.4-7.1-12.6,0.9s6.2,19.2,10.9,12.6C248,454.4,245.1,447.6,245.1,447.6z"/>
			<path class="st38" d="M256.3,481.7c-0.3,1.3-0.5,2.6-0.6,3.8c-4.9-2.2-8.6-9.1-8.6-9.1C250.7,479.5,256.3,481.7,256.3,481.7
				C256.3,481.7,256.3,481.7,256.3,481.7z"/>
			<rect x="280.4" y="532.4" class="st39" width="46.5" height="2.6"/>
			
				<rect x="312.9" y="512.4" transform="matrix(0.4505 -0.8928 0.8928 0.4505 -273.8658 582.3589)" class="st39" width="46.5" height="2.6"/>
			<path class="st35" d="M287.2,527.5c0,0,6.8-0.5,8.7-1.9c1.9-1.4,14.8,3.8,15,5c0.2,1.2,0,1.8,0,1.8h-25.3L287.2,527.5z"/>
			<polygon class="st36" points="242.5,484.3 243.5,481.7 256.5,484.3 256.5,486.6 			"/>
			<g>
				<path class="st35" d="M252.3,499.8c0,0,1.4-9.8-5.4-10.7c-6.8-0.9-7.6,8.8-7.6,8.8L252.3,499.8z"/>
			</g>
		</g>
		<g>
			<g>
				<path class="st40" d="M697.1,684.7c0,0,0.8,5.6,0.9,6.4c0.1,0.8,8.8-0.5,8.8-0.5l0.7-6.6C707.5,684,698.1,683.9,697.1,684.7z"/>
			</g>
			<g>
				<path class="st41" d="M697.9,690.4c0,0-2.8,3.3-5.4,4.8c-2.7,1.5-6.9,2-8.4,3.5c-1.1,1.1-4.2,5.8,6.9,5.7
					c11.1-0.1,16.4,0.7,17.6-1.1c1.2-1.8-1.7-13.3-1.7-13.3S704.2,690.9,697.9,690.4z"/>
			</g>
			<g>
				<path class="st40" d="M634.6,684.7c0,0,0.8,5.6,0.9,6.4c0.1,0.8,8.8-0.5,8.8-0.5l0.7-6.6C645,684,635.7,683.9,634.6,684.7z"/>
			</g>
			<g>
				<path class="st41" d="M635.4,690.4c0,0-2.8,3.3-5.4,4.8c-2.7,1.5-12.5,2.7-14.1,4.2c-1.1,1.1-3,5.5,12.6,5.1
					c11.1-0.3,16.4,0.7,17.6-1.1c1.2-1.8-1.7-13.3-1.7-13.3S641.9,691,635.4,690.4z"/>
			</g>
			<g>
				<path class="st42" d="M694,541.4c0,0,4.6,13.8,4,25.6c-0.6,11.9,2.4,24.9,3.6,37.3c1.4,13.8,7,46.6,7.2,53.9
					c0.2,7.4-0.9,31-0.9,31l-11.2,0.3c0,0-9.4-57.2-11.9-63.1c-2.4-5.8-14.6-47.5-15-52.1C669.5,569.6,694,541.4,694,541.4z"/>
			</g>
			<g>
				<path class="st41" d="M646.7,543.8c0,0-6.2,32.5-7,39.8c-0.8,7.3-1.4,35.2-1.8,39.7s-2.7,59.4-4.9,66.2h14.4
					c0,0,11-39.9,11-58.8c0-18.9,8.5-41,14-53.5c5.5-12.5,18.1-12.7,21.5-35.9C694,541.4,651.3,536.5,646.7,543.8z"/>
			</g>
			<g>
				<path class="st20" d="M675.9,432.6c0,0-11.3-4.2-16.5,4.4c-5.2,8.6-4.7,25.9,1,28c5.7,2.1,14.3,1,17.2-4.4
					c2.9-5.4,5.6-13.2,5.4-18.4C682.9,437,678.9,434.1,675.9,432.6z"/>
			</g>
			<g>
				<path class="st20" d="M662.3,464.5c0,0,0.5,3-0.3,4.4s14.2,1.5,14.2,1.5s1.2-7.9,3.5-14.7C682.1,449,662.3,464.5,662.3,464.5z"
					/>
			</g>
			<g>
				<path class="st43" d="M679.7,455.7c0,0-1,1.7-5.3,1c-4.2-0.7-9.4-6.3-11.1-6.9c-1.8-0.6-1.8-1.7-1.8-1.7l-1.1,1.6l-1.9,0.1
					c0,0,1.7-5-0.9-7.1c-2.6-2.1,2.7-16.3,16.2-11.5c0,0,10.4,2.9,10,8.8C683.6,446,682.1,452.8,679.7,455.7z"/>
			</g>
			<g>
				<path class="st28" d="M661.1,468.7c0,0,0-2.8,1.3-3.1c1.3-0.3,14-1.5,15.5-0.9v3.3C677.9,468,674.9,469.9,661.1,468.7z"/>
			</g>
			<g>
				<path class="st20" d="M661.8,446.1c0.2-1,2.8-3.8,3.7-0.8c1,3-1.5,7.1-2.8,6.8C661.4,451.7,661.2,448.6,661.8,446.1z"/>
			</g>
			<g>
				<path class="st36" d="M661.1,468.7c0,0-7,2.5-15,5.9c0,0-9.3,3.5-10.3,13.7c-0.5,5.4-6.3,34.3-7.4,36.8
					c-1.1,2.4-13.9,41.7-14.4,42.5c-0.5,0.8,10.5,5.4,11.2,5c0.7-0.4,12.4-35.8,13.6-38.4c0,0,6.7-21.2,6.9-24.4c0,0,0.2,9,0.6,11.6
					c0.4,2.5-6,51.7-5.8,53.1c0.2,1.4,28.9,3.1,40.4,1.8c11.5-1.3,20.8-3.9,20.8-3.9s-9-38.8-8.8-43.1c0.6-9.4,3.7-27,3.7-27
					l9.4,17.7l-12,30.9l2.7,9.4c0,0,22.3-33.7,23-36.8c0.7-3.1-1.1-7-2.3-9.5c-1.2-2.5-8.9-21.8-10.7-24.5
					c-1.8-2.7-4.9-13.6-12.3-16.6c-6.2-2.5-16.6-4.6-16.6-4.6L661.1,468.7z"/>
			</g>
			<g>
				
					<rect x="597.1" y="541.5" transform="matrix(0.9687 0.2484 -0.2484 0.9687 158.7496 -137.4836)" class="st44" width="54.2" height="37.8"/>
			</g>
			<g>
				<path class="st45" d="M609.4,575.6c0,0-1.5,2.4-2,3.1c-0.5,0.7,1.3,1.1,2.2,0.4C610.3,578.5,609.4,575.6,609.4,575.6z"/>
			</g>
			<g>
				<path class="st46" d="M620.3,583.9c0,0,0.9-0.9,1.1-1.5c0,0,0.3-1.1,0.5-1.9c0.1-0.2,0.1-0.5,0.2-0.6c0.3-0.6,1-1.7,1.2-3.2
					c0.2-1.5,0.9-8.2,0.9-8.2l-4.1-1l-3.3-0.7c0,0-7.1,7-7.4,8.4c0,0.1-0.1,0.3-0.1,0.4c-0.2,1.2,0.1,2.2,0.1,2.8c0,0.2,0,2.6,0.6,3
					c0.8,0.6,1.5,0.7,2.2,0.5c0,0,1.5,1.1,2.8,1.1c0,0,1.4,1.1,2.9,0.5C617.9,583.5,619.4,584.5,620.3,583.9z"/>
			</g>
			<g>
				<path class="st36" d="M636.2,541.4c0,0-9.3,28.2-11,31.2c0,0-6.8-1.4-11.2-5l10.2-30.5L636.2,541.4z"/>
			</g>
		</g>
		<g>
			<g>
				<g>
					<path class="st47" d="M835.4,575.1c0,0-0.4-6.5-2.1-7.5c-1.7-1-0.7,1-0.7,1s1,4.7,1.2,6.6C833.8,575.3,835.4,575.1,835.4,575.1
						z"/>
				</g>
			</g>
			<path class="st48" d="M789.6,438.4c0,0,16.2-1.3,15.7,15.7c-0.4,17-3.1,19.6,0,31.6c3.1,12-15.8-6.8-15.8-6.8L789.6,438.4z"/>
			<path class="st35" d="M776,484.4c0,0-22.9,14.3-24.8,12.8c-2.7-2.1-10.1-20.2-10.1-20.2l-5.8,2.7c0,0,6.9,31.3,16.1,29
				c9.3-2.3,30.5-15.4,30.5-15.4L776,484.4z"/>
			<path class="st35" d="M807.2,543.5c0,0,6,7.6,8.1,12.6c2.1,5,5.6,16,5.1,24.5c-0.5,8.5-3.3,24.5-2.5,28.1
				c0.8,3.6,1.6,11.1,2.5,13.7c0.9,2.6,4.4,10,4.7,17.7c0.4,7.7-4.9,41.5-4.7,44.7c0.2,3.2-6,1.3-6,1.3s-2.1-30.6-3.3-35.8
				c-1.2-5.3-2.6-23.1-3.6-24.4c-1.1-1.3-3.9-14.6-3.5-16.7c0.4-2.1-11.5-33.6-12.2-39.9c-0.7-6.3-18.3-25.8-18.3-25.8
				S789.1,537.6,807.2,543.5z"/>
			<path class="st35" d="M778.8,543.5c0,0-0.3,3.2-0.7,4.3c-0.4,1.2-8.4,30.9-9.2,42.4c-0.8,11.4-2.9,21.1-3.3,23.6
				c-0.3,2.4,0.4,10.6,1.1,12.7c0.7,2.1-3.5,51.7-3.9,52.9c-0.4,1.2,2.8,1.5,5,1.2c2.2-0.4,13.4-36.4,12.7-42.5
				c-0.7-6.1-1.4-19,0.6-24.3c2-5.3,19.8-43.3,20-45.6C801.2,565.8,808.9,525.6,778.8,543.5z"/>
			<path class="st35" d="M814.7,682.4c0,0-0.6,4-1.2,5.1c-0.6,1.1-2.4,6.7-3.1,7.7c-0.8,1-2.5,8.9,0,9.8c2.5,0.9,8.4,2.5,10.4-0.6
				c2-3.1,2.2-6.3,1.9-8.7c-0.3-2.4-2.7-13.5-2.7-14.5C820,680.2,814.7,682.4,814.7,682.4z"/>
			<path class="st36" d="M811.3,693.1c0,0-0.3,6.1,4.3,6.1s6.6-5.5,6.6-5.5s1.6,2.7,0,8.5c-1.6,5.8-8.1,4.6-9.6,4.4
				C811.3,706.4,804.3,704.5,811.3,693.1z"/>
			<path class="st36" d="M763.3,676.9c0,0-3.3,5.8-5.2,7c-2.4,1.5-7.1,6.2-8.7,6.4c-1.6,0.2-7.5,1.3-6.4,4.6
				c0.9,2.7,14.9,2.3,16.5,1c1.6-1.4,6.3-6.2,8.2-6.1c1.9,0.1,1.2,7,1.2,7h2.1c0,0,0.7-6.7,0.8-7.9c0.3-3.4-2.2-6-2.3-7.9
				c-0.1-2-0.2-3.4-0.2-3.4L763.3,676.9z"/>
			<path class="st35" d="M749.9,690.2c0,0,4.6,1.6,8.2-0.4c3.6-2,10.4-5.1,12.8-5.2c0,0-1.3-4-1.3-4.5c0-0.5-0.2-2.6-0.2-2.6l-6-1
				c0,0-3.9,5.7-5.6,7C756.1,684.9,751.8,688.2,749.9,690.2z"/>
			<path class="st36" d="M773.7,543c0,0-1.7,6.9-2.3,8.9c-0.6,2-4.5,33.2-5.5,52.8c0,0,23.5,8.9,55.9,7.4c0,0,0.8-35.9-2.2-46
				c-3-10.2-8.4-19.7-12.4-22.6C803.6,540.9,773.7,543,773.7,543z"/>
			<g>
				<g>
					<path class="st35" d="M827.4,560.5c0,0-0.5,2.9-1.4,5.7c-0.9,2.8-1.7,3.7-1.3,5.3c0.3,1.2,1.6,2.1,2,1.7
						c0.3-0.4,0.5-5.1,2.5-5.1c2,0-0.6,5.9,0.6,5.4c1.2-0.4,5.7-2.9,5.4-5.3c-0.3-2.4-2.1-4.1-2-7.7c0.1-3.2-0.9-4.6-0.9-4.6
						L827.4,560.5z"/>
				</g>
			</g>
			<g>
				<g>
					<path class="st20" d="M733.8,478.3c0,0,2.7,3.5,4.4,3.9c1.7,0.4,3.5-3.6,3.5-3.6l-1-3.6L733.8,478.3z"/>
				</g>
			</g>
			<g>
				<g>
					<path class="st20" d="M740.5,477.1c0,0,1.3-4.1,1.5-4.7c0.2-0.6-0.5-2.5-1.6-4.3c-1.1-1.7-2.5-3.6-3-4.1
						c-0.3-0.3-0.4-0.5-1.3-0.2c-0.9,0.4-1.4,1.2-1.4,1.2s-1.3,0-1.8,1c0,0-1.2,0-1.6,1.3c0,0-1.2,0.1-1.4,1c0,0,0.6,1.7,0.6,2.5
						c0,0.7,1.4,4.3,3.3,7.5C733.8,478.3,736.6,480.7,740.5,477.1z"/>
				</g>
			</g>
			<g>
				<g>
					<path class="st49" d="M737.5,471.7c0,0-1.4,1.6-1.6,2.3c-0.2,0.7-4.3-1.8-4.3-1.8S735.5,470.1,737.5,471.7z"/>
				</g>
			</g>
			<g>
				<g>
					<path class="st21" d="M737.6,464.4c0,0,2.3,4.8,1.5,5.2c-0.8,0.4-1.3,0.1-1.3,0.1l-0.1,2.4c0,0-1,1.6-2.4,0c0,0-0.8,1.5-2-0.1
						c0,0-1,0.8-1.6,0.1c-0.7-0.7-1.8-3.9-1.8-3.9s0.1-0.8,1.4-1c0,0,0.3-1.2,1.6-1.3c0,0,0.7-1.3,2.1-1.3c0,0,0.8-1.1,2.3-0.7
						C737.4,464,737.5,464.2,737.6,464.4z"/>
				</g>
			</g>
			<g>
				<g>
					<path class="st20" d="M742,472.2c0,0-2.8-2.4-4.9-3.1c-0.5-0.2-1-0.2-1.3,0.2c-0.3,0.4-0.2,1.3,1,2.4c1.1,1.1,2.1,3.1,2.1,3.1
						S740.4,475.6,742,472.2z"/>
				</g>
			</g>
			<g>
				<path class="st20" d="M735,464.7c0,0,2.8,5,2.8,5.6c0,0.6,1.8-0.4,1.8-0.9c0-0.5-2-5-2.3-5.4C737.1,463.6,735.5,463.3,735,464.7
					z"/>
			</g>
			<g>
				<path class="st20" d="M737.9,465c0,0-4.5-8.4-5.2-8.1c-1,0.4-0.7,2.8,3.1,9C739.5,472,737.9,465,737.9,465z"/>
			</g>
			<path class="st22" d="M774.8,501.8l-9.2-12.3c0,0,16.5-12.8,21.6-4.7C787.1,484.8,787.5,498.2,774.8,501.8z"/>
			<path class="st22" d="M769.2,501.3c0.3,4.1,2.4,7.5,2.7,9c0.3,1.5,0,4.9,0.4,8.3c0.4,3.4,1.8,19.7,1.3,24.3
				c-0.4,4.6,31.8,2.5,34.3,1.1c0,0-5.4-9.7-5.6-13.7c-0.1-1.4-0.9-5.7,1.4-8.8c1.2-1.7,3.4-7,5.7-10.8c0,0-0.4-0.8,0,0
				c0.9-1.5,1.8-3,2.4-4.1l0,0c0.8-1.5,1.3-3.2,1.3-3.2s1.4-17.9-2.5-19.9c-3.9-2-6-2.4-9.9-2.5c-3.9-0.2-6.4-1-6.4-1l-9,1
				c0,0-5.8,2-8.1,2.2c-2.3,0.2-5.2,5.1-4.9,8.2C772.6,494.6,768.9,497.2,769.2,501.3z"/>
			<g>
				<g>
					<path class="st47" d="M829,568c0,0-2.6,0.7-2.5,9.5l3-0.5c0,0-0.1-4.9,0.8-7.5C830.3,569.4,830.2,567.7,829,568z"/>
				</g>
			</g>
			<g>
				<g>
					<polygon class="st47" points="818.2,579.5 841.1,572.9 841.1,601.2 818.2,615 					"/>
				</g>
			</g>
			<g>
				<polygon class="st47" points="818.2,615 821.1,615.5 843.3,601.6 843.1,573.1 841.1,572.9 				"/>
			</g>
			<path class="st20" d="M806.8,481.9c0,0,7.2,0,10.4,6.3c3.2,6.3,3.6,13,4.4,15.3c0.8,2.4,2.8,16.3,3.6,18.3
				c0.8,2,5.5,15.7,6.6,23.4c1.1,7.7,1.4,15.5,1.4,15.5l-5.7-0.2c0,0-5.7-21-7.7-25.9c-1.7-4.3-2.3-11.7-3.3-14.3
				c-1-2.6-6.9-21.1-8.1-22.4C807.1,496.5,800.7,483.1,806.8,481.9z"/>
			<path class="st22" d="M809.1,507.4l14.6-4.6c0,0-4.5-21.5-16.9-20.9C796.8,482.4,809.1,507.4,809.1,507.4z"/>
			<path class="st20" d="M791.2,440.2c-4-0.7-13.2,0.3-15.8,10.9c0,0,0,2.9,0.4,5.3c0.4,2.3-2.3,8.8-1.9,9.2
				c0.5,0.4,2.6,1.1,2.6,1.1s1.5,7.6,4.1,7.8c2.6,0.2,12.5-0.7,18.1-9.2C804.3,456.6,807.3,442.8,791.2,440.2z"/>
			<path class="st20" d="M784.5,471.4c0,0,0.2,1.1,0.4,2.6c0.1,0.8,0.2,1.7,0.2,2.7c0.2,2.7,0.1,5.8-0.8,7.8c0,0,5,3.1,10.4-4.4
				c0,0-0.5-9.3,2.6-14.3C800.3,461,784.5,471.4,784.5,471.4z"/>
			<path class="st48" d="M775.4,451c0,0,6,5.2,12.4,6.8c6.4,1.6,9.8,8.8,9.8,8.8s11.3-11.3,4.5-22.2
				C795.2,433.6,775.4,438.4,775.4,451z"/>
			<path class="st38" d="M784.9,474c0.1,0.8,0.2,1.7,0.2,2.7c5.6-2.7,8.7-6.5,8.7-6.5C790.6,472.6,784.9,474,784.9,474z"/>
			<path class="st48" d="M789,458.3c0,0,6.5,17.6,5.7,21.8c0,0,3.5-0.6,9.6,1.3C804.4,481.3,801.4,450,789,458.3z"/>
			<path class="st20" d="M796.9,480.6c0,0-2.2,13.2-10.1,11.7c-8-1.5-1.9-11.1-1.9-11.1S788,478.4,796.9,480.6z"/>
		</g>
		<g>
			<path class="st50" d="M641.5,316.8c0,10.3-3.7,19.7-9.8,27c-7.7,9.1-19.2,15-32.2,15c-13.3,0-25.5-6.3-33.2-16.3
				c-5.5-7.1-8.8-16-8.8-25.7c0-23.2,18.8-42,42-42C622.7,274.8,641.5,293.6,641.5,316.8z"/>
			<path class="st12" d="M629.5,339.4c-0.2-0.2-0.5-0.3-0.7-0.4c0,0,0,0,0,0l0,0c-1.8-1-7.2-3.7-17.9-6.8c0,0,0,0,0,0
				c-1.9-0.6-3.4-1-3.9-1.1l-0.9-1.4c-0.1-1.4-0.1-3.6-0.1-5.1c1.5-1.7,2.9-4.5,3.6-8.7c0.2,0.2,0.4-0.2,0.4-0.2
				c-0.1-0.2,2-5.5,1.6-6.7c-0.2-0.7-0.7-0.6-1-0.4c0.1-0.3,0.1-0.6,0.2-1c0,0,0.9-8.1-3.2-12.6c-0.4-0.4-1.9-0.5-1.9-0.5
				c-6.6-2-10.5-1.1-13-0.1c-3.7,3-3.9,8.1-3.8,10.9c0.1,0.7,0.1,1.3,0.2,2c0,0,0,0,0,0c0,0.3,0.1,0.5,0.1,0.8
				c-0.3-0.2-0.8-0.3-1,0.3c-0.4,1.2,1.2,6.4,1.4,6.8c0,0,0.3,0.5,0.6,0.3c0,0,0,0,0,0c0.8,4.6,2.1,7.5,3.5,9.2
				c-0.1,1.9-0.4,4.1-0.6,5.5l-1.6,1.7l0,0c0,0,0,0,0,0c-0.1,0-0.2,0.1-0.3,0.1c0,0,0,0,0,0c-18.4,4.9-23.6,8.3-23.6,8.3
				c-0.5,0.3-0.9,1-1.4,2.2c7.7,9.9,19.8,16.3,33.2,16.3c13,0,24.5-5.9,32.2-15C630.9,341.9,630.3,340.1,629.5,339.4z"/>
		</g>
		<g>
			<g>
				<rect x="303.6" y="283.7" class="st51" width="0.8" height="71"/>
			</g>
			<g>
				<rect x="357.1" y="283.7" class="st51" width="0.8" height="71"/>
			</g>
			<g>
				<rect x="410.6" y="283.7" class="st51" width="0.8" height="71"/>
			</g>
			<g>
				<rect x="464.1" y="283.7" class="st51" width="0.8" height="71"/>
			</g>
			<g>
				<rect x="517.6" y="283.7" class="st51" width="0.8" height="71"/>
			</g>
			<rect x="304" y="358.9" class="st52" width="8.5" height="2.5"/>
			<rect x="304" y="275" class="st53" width="12.8" height="1.9"/>
			<rect x="304" y="278.4" class="st53" width="18.2" height="1.9"/>
			<rect x="356.9" y="275" class="st53" width="15" height="1.9"/>
			<rect x="356.9" y="278.4" class="st53" width="9.6" height="1.9"/>
			<rect x="411.3" y="275" class="st53" width="9.3" height="1.9"/>
			<rect x="411.3" y="278.4" class="st53" width="10.9" height="1.9"/>
			<rect x="464.8" y="275" class="st53" width="13.6" height="1.9"/>
			<rect x="464.8" y="278.4" class="st53" width="10.9" height="1.9"/>
			<rect x="518" y="275" class="st53" width="8.1" height="1.9"/>
			<rect x="518" y="278.4" class="st53" width="6.5" height="1.9"/>
			<rect x="357.5" y="358.9" class="st52" width="8.5" height="2.5"/>
			<rect x="411.3" y="358.9" class="st52" width="8.5" height="2.5"/>
			<rect x="464.8" y="358.9" class="st52" width="8.5" height="2.5"/>
			<rect x="518.3" y="358.9" class="st52" width="8.5" height="2.5"/>
			<g>
				<linearGradient id="SVGID_12_" gradientUnits="userSpaceOnUse" x1="541.4987" y1="317.8925" x2="323.1727" y2="317.8925">
					<stop  offset="0" style="stop-color:#40D5E6"/>
					<stop  offset="1" style="stop-color:#5577FF"/>
				</linearGradient>
				<path class="st54" d="M499.4,333.6c-16.7,0-31.2-6.5-46.3-13.3c-18.7-8.3-38-17-63.7-14.6c-16.4,1.5-26.7,7.5-35.8,12.8
					c-8.2,4.8-16,9-26.6,9.4c-17,0.6-23-6-23.1-6.4v-4.2l0,0l0,0c0,0.1,3.7,7.4,23,7.3c9.5,0,16.5-4.1,24.6-8.9
					c9.4-5.5,20.1-11.7,37.4-13.3c26.7-2.5,46.5,6.4,65.7,14.9c20,9,39.1,17.3,63.3,10.1v3.4C511.1,333.1,505.6,333.6,499.4,333.6z"
					/>
			</g>
			<g>
				<linearGradient id="SVGID_13_" gradientUnits="userSpaceOnUse" x1="303.9759" y1="312.6847" x2="518.0689" y2="312.6847">
					<stop  offset="0" style="stop-color:#40D5E6"/>
					<stop  offset="1" style="stop-color:#5577FF"/>
				</linearGradient>
				<path class="st55" d="M399.3,332.8c-12.3,0-22.1-7.4-31.6-14.7c-7.3-5.5-14.8-11.2-23.5-14c-26.5-8.5-40.1,7-40.2,7.2v-4.7
					c0.1-0.2,2.6-3,9.6-5.7c6.4-2.5,17.1-4.4,31.8,0.2c9.3,2.9,17.1,8.8,24.6,14.6c15.2,11.6,28.4,21.6,51.2,5.9
					c17.3-11.9,33.6-23.2,49.6-27.4c15.7-4,32-1.1,47.3,12.7l-0.1,4.3c-32.5-29.4-60.2-10.8-94.7,12.9
					C414.2,330.4,406.3,332.8,399.3,332.8z"/>
			</g>
		</g>
	</g>
</g>
</svg>
