<?xml version="1.0" encoding="utf-8"?>
<!-- Generator: Adobe Illustrator 24.1.1, SVG Export Plug-In . SVG Version: 6.00 Build 0)  -->
<svg version="1.1" id="_x3C_Layer_x3E_" xmlns="http://www.w3.org/2000/svg" xmlns:xlink="http://www.w3.org/1999/xlink" x="0px"
	 y="0px" viewBox="0 0 1133.8 760" style="enable-background:new 0 0 1133.8 760;" xml:space="preserve">
<style type="text/css">
	.st0{fill:#FBECDB;}
	.st1{fill:#A8D29F;}
	.st2{fill:#4A75CB;}
	.st3{fill:#699DEE;}
	.st4{fill:#D86713;}
	.st5{fill:#F1A34F;}
	.st6{fill:#C95C12;}
	.st7{fill:#82B378;}
	.st8{fill:#FFB973;}
	.st9{fill:#ED975D;}
	.st10{fill:#2B478B;}
	.st11{fill:#233862;}
	.st12{fill:#1E3D70;}
	.st13{fill:#FFB27D;}
	.st14{fill:#2C3A64;}
	.st15{fill:#4A82D3;}
	.st16{fill:#A9453D;}
	.st17{fill:#EE9849;}
	.st18{fill:#E58638;}
	.st19{fill:#2A4E96;}
	.st20{fill:#35488B;}
	.st21{fill:#2E3552;}
	.st22{fill:#4271BC;}
</style>
<g>
	<g>
		<path class="st0" d="M87.8,630.2c0,0-111.1-236.6,107.9-236.6c115.7,0,68-64.9,146.7-140c78.7-75.1,353.7-135.1,412.3,9.9
			c58.5,145.1-86.1,255.2,53.7,236.3c168-22.7,234.4,130.4,234.4,130.4H87.8z"/>
		<path class="st1" d="M987.5,600.2c-10.4-7.6-31.6-2.5-47.2,3c-2.3-3.3-5.2-6.7-8.6-10c33.7-21.7,80.2-68,55.5-71.9
			c-21.4-3.4-50.4,38.2-65.8,63.6c-16.1-10.8-40.7-18.7-78.2-16c-97.5,7.1-173.6-55.7-229.7-34.8c-44.6,16.7-85.5,26-125,22.8
			c1.7-28.8,2.1-85.4-20.6-91.3c-23-6-0.4,58.3,12.1,90.4c-2.9-0.4-5.9-0.8-8.8-1.3c-8.1-16-21.5-36.9-36.1-37.6
			c-13.8-0.7,3.2,18.1,20,34.1c-48.2-10.1-105.5,29.1-106.4,75.4H951c0,0-1.1-6.8-5.8-15.7C968.4,610.5,998.8,608.4,987.5,600.2z"/>
		<g>
			<g>
				<rect x="321.4" y="590.8" class="st2" width="158.7" height="35.8"/>
				<rect x="272.5" y="590.8" class="st3" width="158.7" height="35.8"/>
			</g>
		</g>
		<g>
			<g>
				<g>
					
						<rect x="542.6" y="461.5" transform="matrix(-1 -1.224647e-16 1.224647e-16 -1 1203.3215 1088.111)" class="st4" width="118.2" height="165.2"/>
					
						<rect x="506.1" y="461.5" transform="matrix(-1 -1.224647e-16 1.224647e-16 -1 1130.4429 1088.111)" class="st5" width="118.2" height="165.2"/>
				</g>
			</g>
			<polygon class="st6" points="624.3,461.5 660.8,486.3 660.8,461.5 			"/>
		</g>
		<g>
			<path class="st7" d="M259.5,498.1c0,0-22.1,16.4-26.4,15.4c-4.3-1,16.2-17.7,16.2-17.7c-7.7-3.7-31.6-1.4-31.6-1.4
				s-8,25.7-11.9,23.7c-3.9-2,8.2-22.4,8.2-22.4c-8.6-0.5-19.1,5.9-19.1,5.9c-14.4,11.4,0.9,29.3,0.9,29.3s-3,8.9-12,16.9
				c0,0-13,9.6-13.9,26.8l2.4,0.2c0,0,3.7-16,10.5-23.5c0.3-0.3,0.6-0.7,1.1-1.1c1.1-1,1.9-1.8,2.4-2.4c3.4-3.2,8.1-7.4,10.3-7.8
				c0,0-0.1-0.4-0.1-1.1c0,0.4,0.1,0.7,0.1,1.1c0.8,9,18.3,17,29.1,18.6c10.8,1.6,7.5-2.8,3.7-9.4c-3.7-6.6-15.5-9.5-18.2-12.6
				c-2.7-3,2.9-3,9.4-0.1c6.5,3,7.4,10.9,17.8,15.9c10.4,5,26.1-12.3,26.1-12.3c-8.3-0.4-20.2-9.5-19.8-12.2
				c0.4-2.8,20.2,4.8,23.5,5.1c3.4,0.4,11-3.8,12.2-17.4C281.8,501.8,259.5,498.1,259.5,498.1z"/>
			<g>
				<path class="st1" d="M142.1,508.3c0,0,24.4-13.7,13-32.2c0,0-9.1-11.4-18.9-14.3c0,0,5.2,27.7,0,28.3
					c-5.2,0.7-3.6-31.2-3.6-31.2s-25.7-12.4-35.8-11.4c0,0,15.9,27,10.7,26.4c-5.2-0.7-23.1-28-23.1-28s-26.4-4.9-30.6,10.7
					c-4.2,15.6,2.6,23.4,6.5,24.4c3.9,1,29,0.7,28.3,3.9c-0.7,3.3-17.6,8.5-27,5.5c0,0,10.4,25.7,24.1,24.4
					c13.7-1.3,17.9-9.8,26.4-10.4c8.5-0.7,14.6,1.6,10.4,3.9c-4.2,2.3-18.6,0.7-25.4,6.6c-6.8,5.8-12.4,9.4,0.3,12
					c12.7,2.6,35.5,1,40-8.8C142.1,508.3,142.1,508.3,142.1,508.3z"/>
				<path class="st7" d="M148.6,532c-6.8-12.7-6.5-23.8-6.5-23.8c-7.8-24.7-76.2-46.9-76.2-46.9c86.9,35.2,71.6,56.6,71.6,56.6
					c2.3,1.4,5.9,7.9,8.3,12.9c0.3,0.9,0.9,2,1.7,3.6l0,0c0.3,0.7,0.6,1.3,0.8,1.7c4.5,11.2,2.1,30.5,2.1,30.5l2.7,0.7
					C159.2,548,148.6,532,148.6,532z"/>
			</g>
			<g>
				<path class="st1" d="M181,489.4c0,0-32.2-18-17.2-42.5c0,0,12-15,24.9-18.9c0,0-6.9,36.5,0,37.3c6.9,0.9,4.7-41.2,4.7-41.2
					s33.9-16.3,47.2-15c0,0-21,35.6-14.2,34.8c6.9-0.9,30.5-36.9,30.5-36.9s34.8-6.4,40.3,14.2c5.6,20.6-3.4,30.9-8.6,32.2
					c-5.1,1.3-38.2,0.9-37.3,5.1c0.9,4.3,23.2,11.2,35.6,7.3c0,0-13.7,33.9-31.7,32.2c-18-1.7-23.6-12.9-34.8-13.7
					c-11.2-0.9-19.3,2.1-13.7,5.1c5.6,3,24.5,1,33.5,8.6c9,7.7,16.3,12.4-0.4,15.8c-16.7,3.4-46.8,1.3-52.8-11.6
					C181,489.4,181,489.4,181,489.4z"/>
				<path class="st7" d="M281.4,427.6c0,0-90.1,29.2-100.4,61.8c0,0,0.4,14.6-8.6,31.3c0,0-13.9,21.1-6,46.8l3.6-1
					c0,0-3.1-25.5,2.8-40.2c0.2-0.5,0.6-1.3,1-2.3c0,0,0,0,0,0c1.1-2.1,1.8-3.7,2.3-4.8c3.2-6.6,7.8-15.2,10.9-17
					C187,502.3,166.8,474,281.4,427.6z"/>
			</g>
			<path class="st5" d="M179.9,623.2c34.8,0,63-28.2,63-63H116.8C116.8,595,145.1,623.2,179.9,623.2z"/>
			<path class="st8" d="M195.4,622.7c-2.6,0.3-5.2,0.5-7.8,0.5c-34.8,0-63-28.2-63-63h15.7C140.2,592.3,164.3,618.9,195.4,622.7z"/>
			<path class="st5" d="M236,618.9H123.7c-4.3,0-7.8,3.5-7.8,7.8h127.8C243.8,622.4,240.3,618.9,236,618.9z"/>
			<path class="st4" d="M243.4,560.2H115.7c-0.5,0-1,0.4-1,1c0,0.5,0.4,1,1,1h127.6c0.5,0,1-0.4,1-1
				C244.3,560.6,243.9,560.2,243.4,560.2z"/>
		</g>
		<g>
			<path class="st9" d="M729.8,228.3c-1.8-0.3-7.3,4.8-7.3,4.8l0,0c-11.8,1.4-28.9,4.5-35.1,5.7c-4.4,0.8-16.2-3.2-27.7-7.8
				c-13.7-5.5-27-11.8-27-11.8c-7.6-0.4-16.2,13.5-0.8,22.3c2.4,1.3,11.2,3.6,21.4,5.7c0,0,0,0,0,0c14,2.9,30.6,5.4,36.3,4.5
				c6.6-1,25.1-7.8,36.2-13v0c0,0,0,0,0,0c0,0,0.1,0,0.1-0.1c0.7-0.3,3.4-1.5,5.2-1.4c2.1,0.1,6.7-3.7,6.8-4.7
				C737.9,231.5,731.6,228.5,729.8,228.3z"/>
			<path class="st10" d="M715.4,403l-6.5,1.3c0,0-29.6-33.3-34.2-47.3c-2.4-7.5-18.1-10.7-34.4-14.9c-14.2-3.7-29-8.1-36-16.8
				c-15.1-18.6,9.5-41.4,9.5-41.4s26.2,15.6,48.8,31.7c15.8,11.3,29.9,22.8,32,29.4C699.8,361.1,710.7,391.6,715.4,403z"/>
			<path class="st11" d="M706.7,414h3.6c1.2-0.2,2.1-0.5,3.4-0.7c1.9-0.2,2.8,0.5,2.9,0.7c0,0,0,0,0,0h15.5c0.4-0.6,0-1.8-0.4-2.8
				c-0.2-0.6-0.8-1.1-1.4-1.3c-1.6-0.5-4.9-0.9-7.8-3.6c-1.7-1.5-8-5.5-8-5.5l0,0c-0.1,0-0.8,0.2-3.7,2.7c-1.5,1.3-4.1-1.8-4.1-1.8
				s-0.5,0.4-0.8,1.1c-0.3,0.6-0.5,1.4-0.3,2.4c0.2,1.4-0.5,4-1.1,5.7c-0.4,1.1-0.7,1.8-0.7,1.8S703.6,413.6,706.7,414z"/>
			<path class="st12" d="M662.6,315.6l-22.3,26.5c-14.2-3.7-29-8.1-36-16.8c-15.1-18.6,9.5-41.4,9.5-41.4S640,299.5,662.6,315.6z"/>
			<path class="st10" d="M642.4,301.8c0,0-1.8,5.7-4.7,14.2c-3.7,10.8-9.2,26.2-15.2,40.4c-1.3,3.1-2.7,6.2-4,9.2
				c-5,11-10.1,20.4-14.6,25.2c-8.1,8.6-27.7,63.8-27.7,63.8l-4.9-1.4c0,0-6.8-47.2,17.3-74c0.3-0.3,0.5-0.6,0.5-1c0,0,0,0,0,0
				c0.3-4,1.5-21.8,4-39.8c0.6-4.4,1.3-8.9,2.1-13.1c0-0.3,0.1-0.5,0.1-0.8c3.7-19.6,7.2-28.4,11.7-32.8l33.4,9.5L642.4,301.8z"/>
			<path class="st11" d="M570.8,461.4h3.6c1.2-0.2,2.1-0.5,3.4-0.7c1.9-0.2,2.8,0.5,2.9,0.7c0,0,0,0,0,0h15.5c0.4-0.6,0-1.8-0.4-2.8
				c-0.2-0.6-0.8-1.1-1.4-1.3c-1.6-0.5-4.9-0.9-7.8-3.6c-1.7-1.5-8-5.5-8-5.5l0,0c-0.1,0-0.8,0.2-3.7,2.7c-1.5,1.3-4.1-1.8-4.1-1.8
				s-0.5,0.4-0.8,1.1c-0.3,0.6-0.5,1.4-0.3,2.4c0.2,1.4-0.5,4-1.1,5.7c-0.4,1.1-0.7,1.8-0.7,1.8S567.6,461,570.8,461.4z"/>
			<path class="st13" d="M577.9,237.7c0,0-5.6,13.7-12,26.9c-5.4,11.2-11.4,22.1-15.2,24.4c-5.4,3.3-20.2,12.5-29.8,19.5
				c0,0-7.5-0.1-8.7,1.4c-1.2,1.4-3.9,7.9-3.1,8.5c0.8,0.7,6.7,0.4,8.2-1.1c1.3-1.3,4.1-2.2,4.8-2.4c0,0,0.1,0,0.1,0c0,0,0,0,0,0v0
				c11.7-3.6,30-11.1,35.5-14.7c4.8-3.2,15.4-16.2,23.8-27.8c0,0,0,0,0,0c6.1-8.4,11.1-16.1,11.9-18.6
				C599,236.7,583.3,232.3,577.9,237.7z"/>
			<path class="st14" d="M607.1,184.1c-0.7-1-1.3-1.8-2-2.6c0.8,0,1.7-0.1,2.5-0.4c2-0.8,2.9-7,2.6-8.9c-0.3-1.8-3-7.2-6.4-7.7
				c-3.4-0.5-6.8,3.2-6.8,3.2c0.6-2.7,6.3-4.2,6.3-4.2c-11.7,2.2-11.1,10-11,10.7c-10.7-3.8-17,16.3-17,16.3l27.7,16.3
				c0,0,0.1-4.5,2.7-4.2C609.8,203.2,613.2,193.1,607.1,184.1z"/>
			<path class="st13" d="M608.9,226.4c-6.4,3-14.8-1.3-14.8-1.4c0.5-0.5,0.4-2.2-0.1-4.3c-0.5-2.2-1.7-5.3-3.9-8.9
				c-0.5-0.8-0.9-1.5-1.5-2.4l0.7-0.3l12.4-5c0,0,2,3.6,4.1,6.9c1.8,2.7,3.6,5.2,4.5,5.1C610.3,216.2,618.5,221.8,608.9,226.4z"/>
			<path class="st9" d="M601.7,205.5c-0.3,4.4-1.8,12.4-7.8,15.3c-0.5-2.2-1.7-5.3-3.9-8.9L601.7,205.5z"/>
			<path class="st13" d="M589.4,216.9c0,0,16.1-6.3,12-16.3c-4.1-10-4.8-17.5-15.2-13.9c-10.4,3.6-10.9,8.2-10.3,11.9
				C576.4,202.3,585.1,218.2,589.4,216.9z"/>
			<path class="st14" d="M595.4,198.3c7.4-1,9.6-4.1,9.6-4.1s-6.8-2-10.9-8.7c0,0-8.4-2.8-14.5,1.9c-0.4,0.5-0.6,1.1-0.8,1.7
				c-1.4-0.5-3.6-0.3-4.8,3.7c-1.8,6,4.7,12.6,4.7,12.6c1.6-0.5-0.2-5.8-0.5-8.7c-0.2-2.1,1-4.8,1.6-6.1c0.8,1,8.6,10.9,18.2,11.3
				c0,0-5.1-1.8-9.7-5.2C590.7,197.9,593.1,198.6,595.4,198.3z"/>
			<path class="st3" d="M639.5,246.9c-0.1-0.5-0.3-1-0.4-1.5c2.4-4.6,3.6-8.7,4.1-12.2c1.1-7.4-0.8-11.9-0.8-11.9
				s-11.2-5.9-16.1-6.7c0,0,0,0-0.1,0c-0.1,0-0.1,0-0.2,0c-5-0.7-15.7,1.5-15.7,1.5s2.1,5.5-3.8,9.2c-5.9,3.7-12.1-0.9-12.1-0.9
				c-0.2,0.1-0.4,0.3-0.6,0.4c0,0,0,0,0,0c0,0-15.4,10.2-16.8,12.5c-1.4,2.3-7.3,13.8-7.3,13.8s1.9,9.7,22.7,10.5
				c1.7,4.2,3,8.2,3.5,11.6c1.7,13.1-0.3,23.5,1.7,31.1c1.9,7.7,36.7,3.3,43,1.8c6.3-1.5,4.9-8.2,5.4-14.7
				C646.4,283.3,641.5,254.2,639.5,246.9z"/>
			<path class="st15" d="M643.1,233.3c-0.5,3.5-1.7,7.6-4.1,12.2c-0.5-2.4-2.8-11.2-6.4-15.2C632.7,230.3,638.7,230.8,643.1,233.3z"
				/>
		</g>
		<g>
			<path class="st9" d="M501.6,319.3c0,0,6.5-7.8,7.9-8.8c1.4-0.9,7.5-2.6,7.9-2.2c0.3,0.3,0.4,0.8-0.4,1.5
				c-0.8,0.7-3.7,2.4-3.2,2.5c0.4,0.2,9.1-4.2,10.4-2.7c1.3,1.5-0.7,7.5-4.1,10.4c-3.4,2.9-13.4,4.1-14,4.5
				C500.6,327.9,501.6,319.3,501.6,319.3z"/>
			<path class="st13" d="M387.6,301.2c0,0,9.3,11,21.2,6.4c0,0,2.5-6.2,2.6-10.7c0-0.6,0-1.1,0-1.6c0.1-5.1,0.2-8,0.2-8s0,0,0,0
				c-0.5-0.2-18.1-7.4-18.1-6.8C393.7,294.3,387.6,301.2,387.6,301.2z"/>
			<path class="st9" d="M395.2,283.7c1.7,3.1,7.5,9.3,16.1,11.5c0.1-5.1,0.2-8,0.2-8s0,0,0,0C411,287.1,394.7,282.8,395.2,283.7z"/>
			<path class="st13" d="M415.2,286.7c0,0-19.8,4.6-22.5-7.7c-2.7-12.4-7.1-20.1,5.4-23.6c12.5-3.5,16,0.7,17.9,4.6
				C418,264,420.3,285.2,415.2,286.7z"/>
			<path class="st16" d="M393.4,282.4c-0.3,0.2-4.5,1.5-12.6-14.6c-1.3-2.5-2.1-8,0.8-12.8c2.9-4.8,13.4-8.6,22.1-10.2
				c8.7-1.6,10.8,3.2,12.8,8.1c2.1,5.2,8.3,9.4,8.3,9.4c-7.5,4.2-16.5-1.8-19.6-0.8c-3.1,1-4.2,5.9-4.5,7.5
				c-0.2,1.6-0.6,2.9-4.5,1.5s-1.8,5.6-1.1,6.9C395.2,277.4,395.7,280.9,393.4,282.4z"/>
			<g>
				<path class="st14" d="M342.5,590.8h-12c-2.5,0-5.3-2.5-6-7.2c-0.7-4.7-5.9-7.2-7-11s4.6-9.2,4.6-9.2l1-1.2l1-1.3l9.5,2.3
					c0,0,0.2,2.3,0.4,5.2c0.1,2.1,0.2,4.5,0,6.7c-0.3,5.1,1.4,10.6,5.9,11.6C344.4,587.5,342.5,590.8,342.5,590.8z"/>
				<path class="st14" d="M425.8,590.9h-31.7c-0.3-0.1-0.5-0.1-0.7-0.2c-2.1-1.1-1.5-9.4-1.2-12c0-0.5,0.1-0.8,0.1-0.8
					s11.2-9.2,12.7-2.2c0,0.2,0.1,0.4,0.2,0.6v0c1.9,6.6,10.6,9.6,15.6,10.4C424.6,587.5,425.6,589.8,425.8,590.9z"/>
				<path class="st17" d="M419.4,407.5c0,0-1.7,21.1-3.7,46.5c-2.7,34.5-6,76.9-6.3,84.9c-0.6,13.9-2.8,36.3-2.8,36.3
					s-5.3,5.3-15.9,3.1c0,0-9.4-31.8-12.1-65.5c0-0.6-0.1-1.1-0.1-1.7c-2.5-34.3-6.4-106.5-6.4-106.5L419.4,407.5z"/>
				<path class="st18" d="M419.4,407.5c0,0-1.7,21.1-3.7,46.5l-37.1,58.7c0-0.6-0.1-1.1-0.1-1.7c-2.5-34.3-6.4-106.5-6.4-106.5
					L419.4,407.5z"/>
				<path class="st17" d="M411.7,410c0,0-30.5,76.5-50.6,112.5c-20.1,36-26.4,46-26.4,46s-11.5-4.6-12.5-7.7c0,0,7.7-69.4,21.1-86.4
					c7.6-9.6,16.5-38.3,16.9-48.3c0.4-10,2.7-29.9,2.7-29.9L411.7,410z"/>
			</g>
			<g>
				<path class="st9" d="M341.8,397.3c0,0-0.8,9.6-1.4,11c-0.6,1.5-4.4,6-4.9,6c-0.4-0.1-0.7-0.4-0.5-1.3c0.2-0.9,1.6-3.8,1.1-3.7
					c-0.4,0.1-4.8,8.1-6.6,7.7c-1.8-0.5-3.5-6.2-2.4-10.2c1-4,8.2-10.4,8.4-11.1C337.9,390,341.8,397.3,341.8,397.3z"/>
				<path class="st12" d="M338.5,399.7c3.4,1.1,3.9,0.8,3.9,0.8s16.4-29.9,18.1-32.7c1.7-2.7,34.9-33.6,34.9-33.6l-8.5-31.9
					c0,0-37.8,49-41.9,56c-6.8,11.6-10.7,38.6-10.7,38.6S335.9,398.8,338.5,399.7z"/>
			</g>
			<path class="st19" d="M425.9,346.8c-0.1,6.5-0.5,13.9-1,21.4c0,0.4-0.1,0.9-0.1,1.3c-0.3,4.6-0.7,9.3-1.1,13.8
				c-0.2,1.8-0.3,3.6-0.5,5.4l0,0.2c0,0.7-0.1,1.4-0.2,2c-1.7,16.9-3.4,30.3-3.7,30.5c-0.4,0.3-0.8,0.4-1.3,0.3
				c-4.4-0.6-17.7,0.5-28.6-1.9c-9.2-1.9-17.1-5.6-25.4-10.5c-1.1-0.7-3.6-2.4-3.4-3.7c0.2-1.4,0.6-3.5,1.1-6.1
				c1.6-9,4.5-24.5,5.5-42.7c0.2-3.4,0.5-6.7,0.8-10c0.9-8.6,2.4-16.7,4.4-23.9c3.7-13.4,9.2-23.7,16.1-27.7
				c0.9-0.5,5.7,2.6,10.2,5.4c4.1,2.6,8.4,3.3,12.6,3l3.7,4.1c4.5,5.2,9.2,12.1,10.5,21.9c0.1,0.7,0.2,1.5,0.3,2.3
				C425.9,336,426,341.1,425.9,346.8z"/>
			<path class="st12" d="M425.9,346.8c-0.1,6.5-0.5,13.9-1,21.4c0,0.4-0.1,0.9-0.1,1.3c-25.4-15.9-29.3-45-29.3-45
				c12.5,0.5,22.4,3.4,30.1,7.5C425.9,336,426,341.1,425.9,346.8z"/>
			<g>
				<path class="st19" d="M505.4,320.1c-1.3-3.5-3.3-3.3-3.3-3.3s-37.7,9.4-41.1,9.8c-3.4,0.4-40.7-14.5-40.7-14.5
					s-14.7-6.6-21.5-0.6c-6,5.2-6.2,11.8-4.8,17.4c1.7,6.6,7.3,11.5,14,12.4c15.2,1.9,45.5,5.6,51.9,4.7c14.1-2,46.2-20.5,46.2-20.5
					S506.5,322.8,505.4,320.1z"/>
			</g>
		</g>
		<g id="man_2_">
			<g>
				<path class="st14" d="M877.7,389.3c0,0,5.2,4.9,4.2,8.3c-1,3.5-5.8,5.8-6.4,10s-3.2,6.5-5.5,6.5s-11,0-11,0s-1.7-3,2.4-3.9
					c4.1-0.9,5.6-5.9,5.4-10.5c-0.3-4.6,0.4-10.7,0.4-10.7l8.7-2L877.7,389.3z"/>
				<path class="st14" d="M812.3,413.5c-0.5,0.3-2.4,0.5-5,0.6h-24.8c0.1-0.7,0.7-3.4,4.7-4c4.6-0.7,12.5-3.4,14.3-9.3
					c0.1-0.2,0.1-0.4,0.2-0.6c1.4-6.3,11.6,1.9,11.6,1.9s0,0.3,0.1,0.7C813.6,405.1,814.2,412.5,812.3,413.5z"/>
				<path class="st20" d="M788.4,245.8c0,0,1.6,19.4,3.4,42.7c2.5,31.7,5.5,70.6,5.8,77.9c0.5,12.8,2.6,33.3,2.6,33.3
					s4.9,4.9,14.6,2.8c0,0,8.7-29.2,11.1-60.1c0-0.5,0.1-1,0.1-1.5c2.3-31.5,5.9-97.7,5.9-97.7L788.4,245.8z"/>
				<path class="st14" d="M788.4,245.8c0,0,1.6,19.4,3.4,42.7l34,53.9c0-0.5,0.1-1,0.1-1.5c2.3-31.5,5.9-97.7,5.9-97.7L788.4,245.8z
					"/>
				<path class="st20" d="M795.5,248.2c0,0,28,70.2,46.4,103.2c18.4,33,24.2,42.2,24.2,42.2s10.6-4.2,11.5-7.1c0,0-7-63.7-19.4-79.2
					c-7-8.8-15.2-35.1-15.5-44.3c-0.4-9.2-2.5-27.4-2.5-27.4L795.5,248.2z"/>
			</g>
			<g>
				<path class="st13" d="M709.1,210.1c0,0-7.6-1.7-8.9-1.6c-1.3,0.1-5.8,2-5.8,2.3c-0.1,0.4,0.2,0.7,0.9,0.7c0.8,0.1,3.3-0.3,3.2,0
					c-0.2,0.3-7.5,1.7-7.6,3.2c-0.1,1.5,3.9,4.2,7.3,4.4c3.4,0.2,10.1-3.8,10.6-3.8C713.8,214.9,709.1,210.1,709.1,210.1z"/>
				<path class="st18" d="M705.9,212c-1.1-3.5-0.8-4-0.8-4s30.8-16.7,33.6-18.3c2.8-1.7,34.7-35.6,34.7-35.6l32.6,9
					c0,0-50.5,38.4-57.7,42.6c-11.9,6.8-39.6,10.7-39.6,10.7S706.7,214.7,705.9,212z"/>
			</g>
			<path class="st13" d="M783.2,137.6c0,0-11.4,20.1-22.6,22.7c0,0,0.5-6.8,3.2-11.4c-1.1-1.3-2.1-2.5-2.9-3.6
				c-2.8-3.6-4.1-5.8-4.1-5.8l3.8-10.2l2.6-6.9c1.2,2.2,2.6,4.2,4,5.8C774.4,136.6,783.2,137.6,783.2,137.6z"/>
			<path class="st9" d="M767.1,128.2c0,0,1.4,10.1-6.2,17.1c-2.8-3.6-4.1-5.8-4.1-5.8l3.8-10.2C764.5,128.1,767.1,128.2,767.1,128.2
				z"/>
			<path class="st13" d="M753.7,141c0,0,17.1-6.7,12.8-17.2c-4.3-10.6-5-18.6-16.1-14.7c-11.1,3.8-11.5,8.7-11,12.6
				C740,125.5,749.1,142.5,753.7,141z"/>
			<path class="st17" d="M841.9,240.8c-6.9,9.9-58.4,23.1-57.8,16.3c0.2-2.6,0.5-7.2,0-13.5c-0.1-1.5-0.3-3-0.5-4.7
				c-1.3-9-4.4-20.6-11.3-34c-0.5-1-1.1-2-1.6-3c-2.9-5.2-5.3-10.7-7.1-16c-3.6-10.3-5-20.2-3.2-26.6c0,0,0-0.1,0-0.1
				c10.8-5,14.9-24.3,14.9-24.3s36.7,6.6,57.3,55.6C832.5,190.3,847.9,232.2,841.9,240.8z"/>
			<path class="st18" d="M784.1,243.6c-0.1-1.5-0.3-3-0.5-4.7c-1.3-9-4.4-20.6-11.3-34c1.2-7.2,2.8-13.2,4.6-15.9
				c7.3-11,11.6-12.7,11.6-12.7S799.4,222.6,784.1,243.6z"/>
			<g>
				<path class="st13" d="M726.2,232.5c0,0-10.2,0.5-11.7,1.1c-1.6,0.6-6.5,4.5-6.5,5c0.1,0.5,0.4,0.8,1.4,0.6c1-0.2,4.1-1.5,4-1.1
					c-0.1,0.4-8.8,4.9-8.4,6.8c0.4,1.9,6.4,3.9,10.8,2.9c4.3-1,11.3-8.3,12-8.6C733.7,236.9,726.2,232.5,726.2,232.5z"/>
				<path class="st17" d="M724.3,236.4c-2-3.3-0.6-4.8-0.6-4.8s31.4-24.6,33.9-27.1c2.5-2.5,13.9-42,13.9-42s3.9-16,13.1-17.8
					c8-1.5,13.5,2.4,17.1,7c4.3,5.5,4.7,13.1,1.2,19.1c-8,13.5-24.2,40.3-28.9,44.9c-10.5,10.2-45.7,24.4-45.7,24.4
					S725.9,239,724.3,236.4z"/>
			</g>
			<path class="st10" d="M768.9,104.2c0.1-0.2,0.5-0.5,1.3-0.7c0,0-0.8-0.3-1.7-0.1c-0.5-1.2-1.6-3.2-3.8-3.2c0,0,1.3,0.3,1.7,1.6
				c-3-1.9-8.5-2.5-22.4,2.2c-18.3,6.1-9.1,16.7-6.4,17.5c2.8,0.9,7.9-4.6,12.5-5.4c4.6-0.7,7.1,5.6,8.8,6.2
				c1.7,0.5,0.8-0.9,2.6-2.4c1.8-1.5,2.9,2,2.8,4.4c0,2.4,3.5,4.7,3.5,4.7s0,0,2.1-3.8c2.1-3.8,1.5-17.8-0.5-20.3
				C769.3,104.6,769.1,104.4,768.9,104.2z"/>
		</g>
		<path class="st21" d="M1068.5,630.3H37.9c-1,0-1.8-0.8-1.8-1.8v0c0-1,0.8-1.8,1.8-1.8h1030.5c1,0,1.8,0.8,1.8,1.8l0,0
			C1070.3,629.5,1069.5,630.3,1068.5,630.3z"/>
		<polygon class="st22" points="480.1,590.4 480.1,611.1 431.2,590.4 		"/>
		<rect x="737.1" y="414.1" class="st2" width="161.8" height="212.6"/>
		<rect x="687.2" y="414.1" class="st3" width="161.8" height="212.6"/>
		<polygon class="st22" points="899,414.1 899,445.9 849.1,414.1 		"/>
	</g>
</g>
</svg>
