<?xml version="1.0" encoding="utf-8"?>
<!-- Generator: Adobe Illustrator 24.1.1, SVG Export Plug-In . SVG Version: 6.00 Build 0)  -->
<svg version="1.1" id="Layer_1" xmlns="http://www.w3.org/2000/svg" xmlns:xlink="http://www.w3.org/1999/xlink" x="0px" y="0px"
	 viewBox="0 0 250 250" style="enable-background:new 0 0 250 250;" xml:space="preserve">
<style type="text/css">
	.st0{fill:#EBEEFF;}
	.st1{fill:none;stroke:#FFFFFF;stroke-width:3;stroke-linecap:round;stroke-miterlimit:10;}
	.st2{fill:#BFC9FF;}
	.st3{fill:none;stroke:#EBEEFF;stroke-width:3;stroke-linecap:round;stroke-miterlimit:10;}
	.st4{fill:#FBAF7B;}
	.st5{fill:#373B54;}
	.st6{fill:#FB8862;}
	.st7{fill:#FFFFFF;}
	.st8{fill:none;stroke:#FB8862;stroke-miterlimit:10;}
	.st9{fill:#55C0BF;}
	.st10{fill:none;stroke:#4CABAA;stroke-width:3;stroke-linecap:round;stroke-miterlimit:10;}
	.st11{fill:#D64D8B;}
	.st12{fill:none;stroke:#BA4379;stroke-width:3;stroke-linecap:round;stroke-miterlimit:10;}
	.st13{fill:#F2A14D;}
	.st14{fill:#494F70;}
	.st15{fill:#F3C700;}
</style>
<g id="BACKGROUND">
</g>
<g id="OBJECTS">
	<g>
		<path class="st0" d="M229.8,191.6c-1.5,4.4-3.8,8.2-6.6,11.4s-6.2,5.8-10,7.8c-1.8,1-3.6,1.8-5.5,2.6c-9.8,3.9-21,5-30.9,4.5
			c-6.3-0.3-12.1-1.3-16.5-2.7c-14.6-4.6-34.7-3.9-68.6-0.2c-1.8,0.2-3.6,0.3-5.3,0.4c-0.5,0-1,0-1.5,0c-11.8,0.2-22.9-2.8-32.5-8.3
			l0,0c-15.7-9-27.3-24.6-31-43c-0.4-2.1-0.7-4.1-0.9-6.3c-0.1-1.4-0.2-2.8-0.3-4.2c0-1.4,0-2.8,0-4.2c0-1.2,0.1-2.4,0.2-3.6
			l0.1-0.8c0.2-2,0.5-4,0.8-5.9c5.2-28.3,28.4-47.2,52.5-40c0.9,0.3,1.9,0.5,2.8,0.7c10.2,2.5,19.8,1.7,28.9-0.7
			c0.6-0.1,1.2-0.3,1.8-0.5c4.8-1.4,9.6-3.2,14.2-5.2c1.7-0.7,3.3-1.5,5-2.2c1.3-0.6,2.6-1.2,3.9-1.8c0.8-0.4,1.6-0.7,2.4-1.1l0,0
			c3.9-1.9,7.7-3.7,11.5-5.4c2.6-1.1,5.2-2.2,7.7-3.1l0,0c5.7-2.1,11.4-3.5,17.1-3.8c7.3-0.3,14.6,1.3,22,5.9
			c2.7,1.7,5.4,3.8,8.1,6.3c3.4,3.1,6.1,6.5,8.4,10c1.3,2,2.4,3.9,3.3,5.9c0.7,1.4,1.4,2.9,1.9,4.4c0.5,1.4,1,2.8,1.5,4.3
			s0.8,2.9,1.2,4.2c0.5,2.2,0.9,4.3,1.2,6.3c0.9,6.2,0.9,11.1,0.8,13.6c0,1.1-0.1,7.4-0.1,7.4c-5,9.2-1.6,9.8,3,16.2
			C226.4,168.7,234.7,177,229.8,191.6z"/>
	</g>
	<g>
		<line class="st1" x1="11.3" y1="153.5" x2="40.1" y2="153.5"/>
		<polygon class="st2" points="6.4,164 44.9,164 47.4,138.9 4.3,138.9 		"/>
		<path class="st2" d="M32.1,162.3l6.2,8.3l0.9-8.9C39.2,161.7,32.2,162.3,32.1,162.3z"/>
		<path class="st1" d="M40.9,144.8c-0.2,0.1-30.4,0-30.4,0"/>
		<line class="st1" x1="40.5" y1="149.2" x2="10.9" y2="149.2"/>
		<line class="st1" x1="40.5" y1="153.7" x2="11.3" y2="153.7"/>
		<line class="st1" x1="26.7" y1="157.7" x2="11.7" y2="157.7"/>
	</g>
	<g>
		<polygon class="st2" points="232.3,123.3 198.1,123.3 195.7,98.2 241.4,98.2 		"/>
		<path class="st2" d="M210.9,121.5l-6.2,8.3l-1-8.9C203.8,120.9,210.8,121.5,210.9,121.5z"/>
		<path class="st1" d="M202.1,104c0.2,0.1,29.6,0,29.6,0"/>
		<line class="st1" x1="202.5" y1="108.4" x2="229.7" y2="108.4"/>
		<line class="st1" x1="202.9" y1="112.7" x2="227.8" y2="112.7"/>
		<line class="st1" x1="203.4" y1="117" x2="217.4" y2="117"/>
	</g>
	<g>
		<ellipse class="st2" cx="181.3" cy="74.1" rx="12.3" ry="12.7"/>
		<rect x="175.8" y="75.6" class="st0" width="2.5" height="4.3"/>
		<rect x="180.1" y="71.2" class="st0" width="2.5" height="8.7"/>
		<rect x="184.4" y="68.7" class="st0" width="2.5" height="11.3"/>
	</g>
	<g>
		<ellipse class="st2" cx="50.8" cy="120.6" rx="12.3" ry="12.7"/>
		<ellipse class="st0" cx="50.9" cy="120.6" rx="6.7" ry="6.9"/>
		<path class="st2" d="M50.9,124c-1.9,0-3.3-1.5-3.3-3.5c0-1.9,1.5-3.5,3.3-3.5c1.9,0,3.3,1.5,3.3,3.5C54.2,122.5,52.7,124,50.9,124
			z"/>
		<path class="st0" d="M52.8,114.7l-0.6-2.5c0-0.2-0.2-0.3-0.4-0.3h-0.9h-0.2h-0.9c-0.2,0-0.4,0.1-0.4,0.3l-0.6,2.5l1.9-0.1
			L52.8,114.7z"/>
		<path class="st0" d="M48.2,115l-2.1-1.3c-0.1-0.1-0.4-0.1-0.5,0l-0.6,0.6l-0.2,0.2l-0.6,0.6c-0.1,0.1-0.1,0.3,0,0.5l1.3,2.2
			l1.3-1.5L48.2,115z"/>
		<path class="st0" d="M45.2,118.6l-2.4,0.6c-0.2,0-0.3,0.2-0.3,0.4v0.9v0.2v0.9c0,0.2,0.1,0.4,0.3,0.4l2.4,0.6l-0.1-2L45.2,118.6z"
			/>
		<path class="st0" d="M45.5,123.4l-1.3,2.2c-0.1,0.1-0.1,0.4,0,0.5l0.6,0.6l0.2,0.2l0.6,0.6c0.1,0.1,0.3,0.1,0.5,0l2.1-1.3
			l-1.4-1.4L45.5,123.4z"/>
		<path class="st0" d="M48.9,126.5l0.6,2.5c0,0.2,0.2,0.3,0.4,0.3h0.9H51h0.9c0.2,0,0.4-0.1,0.4-0.3l0.6-2.5l-1.9,0.1L48.9,126.5z"
			/>
		<path class="st0" d="M53.5,126.2l2.1,1.3c0.1,0.1,0.4,0.1,0.5,0l0.6-0.6l0.2-0.2l0.6-0.6c0.1-0.1,0.1-0.3,0-0.5l-1.3-2.2l-1.3,1.5
			L53.5,126.2z"/>
		<path class="st0" d="M56.5,122.6l2.4-0.6c0.2,0,0.3-0.2,0.3-0.4v-0.9v-0.2v-0.9c0-0.2-0.1-0.4-0.3-0.4l-2.4-0.6l0.1,2L56.5,122.6z
			"/>
		<path class="st0" d="M56.2,117.9l1.3-2.2c0.1-0.1,0.1-0.4,0-0.5l-0.6-0.6l-0.2-0.2l-0.6-0.6c-0.1-0.1-0.3-0.1-0.5,0l-2.1,1.3
			l1.4,1.4L56.2,117.9z"/>
	</g>
	<g>
		<ellipse class="st2" cx="221.6" cy="153.6" rx="12.3" ry="12.7"/>
		<path class="st0" d="M224.5,151.4c0,1.7-1.3,3-2.9,3s-2.9-1.4-2.9-3c0-1.7,1.3-3,2.9-3S224.5,149.7,224.5,151.4z"/>
		<path class="st0" d="M227,159.6h-10.8c0.5-2.6,2.7-4.6,5.4-4.6C224.3,155.1,226.5,157,227,159.6z"/>
	</g>
	<g>
		<ellipse class="st2" cx="86.6" cy="72.2" rx="12.3" ry="12.7"/>
		<polygon class="st0" points="86.6,65.4 88.6,69.5 92.9,70.1 89.8,73.2 90.5,77.6 86.6,75.6 82.8,77.6 83.5,73.2 80.5,70.1 
			84.8,69.5 		"/>
	</g>
	<g>
		<g>
			<path class="st2" d="M126.5,90.7v82.6c0,3.6-1.4,7.2-4,10c-5.3,5.5-14,5.5-19.3,0c-1.5-1.5-2.6-3.4-3.3-5.4l0,0
				c-0.1-3,0.5-9.3,6.5-12.3c5.9-2.9,8.7-0.2,9.6,1c1.1,1.5,1.2,3.2,0.8,3.6c-0.3,0.3-0.2,0.7,0,1c0.3,0.3,0.7,0.2,0.9,0
				c1-1.1,0.7-3.5-0.7-5.4c-3.4-4.8-9.5-2.3-11.3-1.5c-3.1,1.5-5.2,4.1-6.4,7.5c-0.7,2.1-0.9,4.2-0.9,5.8c-0.6,0.1-1.3,0.1-1.9,0.1
				c-7.5,0-13.7-6.3-13.7-14.1c0-0.9,0.1-1.7,0.2-2.6l0,0c3-4.9,8.7-8.1,8.9-8.2c0.4-0.1,0.5-0.5,0.4-0.9c-0.1-0.4-0.5-0.6-0.9-0.5
				c-0.6,0.2-5.9,3.3-9,8c-6.1-3.3-10.4-9.9-10.4-17.5c0-4.3,1.4-8.4,3.7-11.6c4.7-3.5,13.9-9,22.5-7.3c6.2,1.3,8.6,5.8,8.2,9.4
				c-0.3,2.8-2.4,5.5-6.3,5.3c-0.4,0-0.7,0.3-0.7,0.7c0,0.4,0.3,0.7,0.6,0.7c0.1,0,0.3,0,0.4,0c4.5,0,6.9-3.3,7.3-6.5
				c0.5-4.2-2.2-9.5-9.3-10.9c-5.3-1.1-11.7,0.3-18.4,4.1c-1.1,0.7-2.2,1.3-3.1,1.9c-3.1-3.9-5-8.9-5-14.4
				c0-12.6,9.9-22.8,22.1-22.8c1.9,0,3.8,0.3,5.6,0.7c1.7,3.7,5.4,9.7,11.2,9.7c0.7,0,1.4-0.1,2.2-0.3c0.4-0.1,0.6-0.5,0.5-0.8
				c-0.1-0.4-0.5-0.6-0.8-0.5c-5.9,1.4-9.9-4.5-11.7-8.3c0-0.2,0-0.3,0-0.5c0-7.2,5.6-13.1,12.7-13.1
				C120.8,77.6,126.5,83.5,126.5,90.7z"/>
		</g>
		<g>
			<path class="st2" d="M183.1,130.5c2.3,3.3,3.7,7.3,3.7,11.6c0,7.6-4.2,14.2-10.4,17.5c-3.2-4.7-8.5-7.7-9-8
				c-0.4-0.1-0.8,0-0.9,0.4c-0.1,0.4,0,0.7,0.4,0.9c0.1,0,5.9,3.2,8.9,8.2l0,0c0.1,0.8,0.2,1.7,0.2,2.6c0,7.8-6.1,14.1-13.7,14.1
				c-0.6,0-1.3,0-1.9-0.1c0-1.5-0.2-3.7-0.9-5.8c-1.1-3.4-3.3-5.9-6.3-7.4c-1.8-0.9-7.8-3.4-11.3,1.5c-1.4,1.9-1.7,4.3-0.7,5.4
				c0.3,0.3,0.7,0.3,0.9,0c0.3-0.3,0.3-0.7,0-1c-0.4-0.5-0.3-2.1,0.8-3.6c0.9-1.3,3.7-4,9.6-1c6,2.9,6.6,9.3,6.5,12.3l0,0
				c-0.6,2-1.7,3.8-3.3,5.4c-5.3,5.5-14,5.5-19.4,0c-2.7-2.8-4-6.4-4-10V90.7c0-7.2,5.6-13.1,12.7-13.1s12.7,5.8,12.7,13.1
				c0,0.2,0,0.3,0,0.5c-1.9,3.8-5.7,9.7-11.7,8.3c-0.4-0.1-0.7,0.1-0.8,0.5c-0.1,0.4,0.1,0.7,0.5,0.8c0.8,0.2,1.5,0.3,2.2,0.3
				c5.8,0,9.5-6,11.3-9.7c1.8-0.5,3.7-0.7,5.6-0.7c12.2,0,22.1,10.2,22.1,22.8c0,5.5-1.9,10.4-5,14.4c-0.9-0.6-2-1.3-3.1-1.9
				c-6.7-3.8-13-5.2-18.4-4.1c-7.1,1.4-9.8,6.7-9.3,10.9c0.4,3.3,2.8,6.5,7.3,6.5c0.1,0,0.2,0,0.4,0c0.4,0,0.7-0.3,0.6-0.7
				c0-0.4-0.3-0.7-0.7-0.7c-3.9,0.1-6-2.6-6.3-5.3c-0.4-3.6,2-8.1,8.2-9.4C169.3,121.4,178.4,127,183.1,130.5z"/>
		</g>
		<path class="st0" d="M95.5,109.2c0,0.7-0.6,1.4-1.3,1.4c-0.7,0-1.3-0.6-1.3-1.4c0-0.7,0.6-1.4,1.3-1.4
			C94.9,107.8,95.5,108.4,95.5,109.2z"/>
		<path class="st0" d="M172,103c0,0.7-0.6,1.4-1.3,1.4s-1.3-0.6-1.3-1.4c0-0.7,0.6-1.4,1.3-1.4C171.4,101.7,172,102.3,172,103z"/>
		<path class="st0" d="M105.6,150.2c0,0.7-0.6,1.4-1.3,1.4c-0.7,0-1.3-0.6-1.3-1.4s0.6-1.4,1.3-1.4
			C105,148.9,105.6,149.5,105.6,150.2z"/>
		<path class="st0" d="M147.3,117.9c0,0.7-0.6,1.4-1.3,1.4c-0.7,0-1.3-0.6-1.3-1.4c0-0.7,0.6-1.4,1.3-1.4
			C146.7,116.5,147.3,117.1,147.3,117.9z"/>
		<path class="st0" d="M109.1,119.3c0,0.4-0.3,0.7-0.6,0.7s-0.6-0.3-0.6-0.7c0-0.4,0.3-0.7,0.6-0.7
			C108.8,118.6,109.1,118.9,109.1,119.3z"/>
		<path class="st0" d="M150.6,148.4c0,0.4-0.3,0.7-0.6,0.7c-0.4,0-0.6-0.3-0.6-0.7s0.3-0.7,0.6-0.7
			C150.2,147.7,150.6,148,150.6,148.4z"/>
	</g>
	<g>
		<path class="st3" d="M215.4,84.1c0,1.4,1.1,2.6,2.5,2.6s2.5-1.2,2.5-2.6c0-1.4-1.1-2.6-2.5-2.6S215.4,82.7,215.4,84.1z"/>
		<path class="st3" d="M241.6,144.3c0,1.4,1.1,2.6,2.5,2.6s2.5-1.2,2.5-2.6c0-1.4-1.1-2.6-2.5-2.6S241.6,142.8,241.6,144.3z"/>
		<path class="st3" d="M42.7,89.4c0,1.4,1.1,2.6,2.5,2.6s2.5-1.2,2.5-2.6s-1.1-2.6-2.5-2.6S42.7,87.9,42.7,89.4z"/>
		<line class="st3" x1="232.7" y1="133.6" x2="237.6" y2="133.6"/>
		<line class="st3" x1="235.2" y1="136.2" x2="235.2" y2="131.1"/>
		<line class="st3" x1="59.8" y1="85.1" x2="64.7" y2="85.1"/>
		<line class="st3" x1="62.2" y1="87.7" x2="62.2" y2="82.6"/>
	</g>
	<g>
		<g>
			<g>
				<polygon class="st4" points="180.5,160 188.8,158.4 192,175.5 183.6,177.1 				"/>
				<path class="st5" d="M170.5,157.9c0,0-7-4.8-6.1-11c0.6-4.1,6.1-2.4,6.1-2.4s-2.3-5.1-0.6-6.6c2.8-2.6,3.1,4.8,3.1,4.8
					s-0.5-11.2,6.3-11.5c4.2-0.2,4.2,7,4.2,7s6.9-3.5,9.3,2.5c2.4,5.9-4,15-4,15L170.5,157.9z"/>
				<path class="st6" d="M188.8,158.4l1.1,6.1c-1.9,2.8-5.1,5.2-7.5,6.7l-1.9-10.5c0.1-0.3,0.3-0.6,0.5-0.8L188.8,158.4z"/>
				<path class="st4" d="M169.6,147.7c0,0-1.5,13.6,7.2,21.6c0.6,0.6,1.4,0.7,2.2,0.5c2.8-0.8,9.3-3.3,9.5-7.4
					c0.2-5.1-0.8-17.1-5.7-18C177.9,143.4,169.6,147.7,169.6,147.7z"/>
				<path class="st4" d="M184.7,155.2c0,0,3.8-5.3,7.4-3.1s-2.1,9.7-4.8,7.1C184.7,156.6,184.7,155.2,184.7,155.2z"/>
				<path class="st5" d="M169.9,155.8c0,0-0.7-3.6,1.4-3.1c2.2,0.6,4.1,1.3,7.9-3.5c2.8-3.7,7.4,6.1,7.4,6.1s0.7-3.3,2.8-3.6
					c0,0-3.8-10.6-8.1-9.9c-4.3,0.7-13.3,4.1-13.4,6.6C167.9,150.8,169.9,155.8,169.9,155.8z"/>
				<path class="st5" d="M174.1,157.4c0.1,0.7,0,1.2-0.3,1.3c-0.3,0-0.6-0.4-0.8-1.1c-0.1-0.7,0-1.2,0.3-1.3
					C173.7,156.2,174,156.7,174.1,157.4z"/>
				<path class="st5" d="M180.9,156.1c0.1,0.7,0,1.2-0.3,1.3c-0.3,0-0.6-0.4-0.8-1.1s0-1.2,0.3-1.3
					C180.4,155,180.8,155.4,180.9,156.1z"/>
				<path class="st7" d="M176.5,163.1c0.2-0.1,5.5-2.3,5.5-2.3s0,8.4-5.3,2.3L176.5,163.1z"/>
			</g>
			<path class="st8" d="M188.2,157.4c1,1,2.8-1.5,0.9-2.2c0,0-0.3-2.8,1.7-2.5c1.9,0.3,1,2.7,1,2.7"/>
			<path class="st9" d="M207.7,213.3c-9.8,3.9-21,5-30.9,4.5l0.8-16l1.1-22.5c0.2-1.9,1.1-3.7,2.5-5l1.5-1.4l0,0
				c0,0,1.3,4.8,8.4-1.4h0l5.2,1.2c0.4,0.1,0.8,0.2,1.2,0.4c0.9,0.5,1.8,1.2,2.4,2.1c2.7,3.8,4.9,16,6.4,27.2
				C207,206.3,207.4,210.1,207.7,213.3z"/>
			<path class="st9" d="M148,184.6l12.8,6.3l20.5-16.6V199l-10.4,8c-2.9,2.2-6.9,2.4-10,0.5l-18.6-11.3L148,184.6z"/>
			<path class="st4" d="M142.3,196.2L129,195c-0.7,0-1-0.8-0.6-1.4c1.6-2.2,4.8-5.2,5.8-5.6c1.4-0.6,7.1-2.2,7.1-2.2l-1.7-2.1
				c-0.5-0.5-0.4-1.3,0.1-1.8l0,0c0.7-0.7,1.7-0.8,2.5-0.4l5.7,3.1L142.3,196.2z"/>
			<path class="st9" d="M223.2,202.9c-2.8,3.2-6.2,5.8-10,7.8c-2.2-3.2-4.6-6-6.7-8.3c-4.7-4.9-8.6-7.6-8.6-7.6l-1.4-22.1
				c0.4,0.1,0.8,0.2,1.2,0.4C208,177.2,217.1,191,223.2,202.9z"/>
		</g>
		<path class="st10" d="M199.1,175.2c-0.3,0-5.1,4.3-1.8,11.9c3.3,7.6,7.5,12.9,7.5,12.9"/>
		<line class="st10" x1="178.5" y1="192.6" x2="177.6" y2="201.8"/>
	</g>
	<g>
		<path class="st5" d="M56.4,158.4c-2,5.5-12.2,14.5-9.1,17.8c1.4,1.5,3-0.4,3-0.4s-5.2,7.7,0.6,11.6s10.8,0,10.8,0
			S58.9,151.5,56.4,158.4z"/>
		<g>
			<path class="st5" d="M81.3,157c-1.9-3.8,5.5-10.6,1.9-16.6c-3.8-6.3-7.8-1.6-7.8-1.6s-3.3-5.2-9.7-2.8c-3.9,1.5-10,6.6-8.8,17.4
				c1,9.5-11.8,22.8-1.9,30.2c6,4.5,14.9-3.5,14.9-3.5S97.7,190.5,81.3,157z"/>
			<polygon class="st4" points="66,160.1 74.3,158.3 77.7,175.4 69.4,177.1 			"/>
			<path class="st6" d="M66,160.1l1.2,6.1c2.7,1.9,6.6,2.8,9.4,3.3L74.5,159c-0.3-0.2-0.5-0.4-0.8-0.6L66,160.1z"/>
			<path class="st4" d="M79.9,142.7c0,0,6.4,12,1.3,22.8c-0.4,0.7-1,1.2-1.9,1.3c-2.8,0.3-9.8,0.6-11.5-3.1
				c-2.1-4.7-5.5-16.1-1.4-18.9C70.6,141.9,79.9,142.7,79.9,142.7z"/>
			<path class="st4" d="M68.6,155.5c0,0-5.4-3.4-8,0c-2.6,3.5,5.5,8.2,7.1,4.7C69.2,156.8,68.6,155.5,68.6,155.5z"/>
			<path class="st5" d="M82.5,150.3c0,0-0.7-4.7-2.5-3.4c-1.8,1.4-3.3,3.9-8.5,0.9c-4-2.3-4.7,8.5-4.7,8.5s-1.9-2.8-4.6-2.1
				c0,0,0.5-11.5,4.7-12.6c4.2-1.1,13.8-1.4,14.8,0.9C82.7,144.9,82.5,150.3,82.5,150.3z"/>
			<path class="st5" d="M79.2,153.4c0.1,0.7,0.5,1.1,0.8,1.1c0.3,0,0.5-0.7,0.3-1.3c-0.1-0.7-0.5-1.1-0.8-1.1
				C79.3,152.1,79.1,152.7,79.2,153.4z"/>
			<path class="st5" d="M72.5,154.9c0.1,0.7,0.5,1.1,0.8,1.1c0.3,0,0.5-0.7,0.3-1.3s-0.5-1.1-0.8-1.1
				C72.5,153.6,72.4,154.2,72.5,154.9z"/>
			<path class="st7" d="M79.1,159.6c-0.2,0-6,0-6,0s3.1,7.7,5.8,0H79.1z"/>
			<path class="st11" d="M86.5,215.3c-0.5,0-1,0-1.5,0c-11.8,0.2-22.9-2.8-32.5-8.3l0,0c0.9-7.5,2.1-16.1,3.7-22.7
				c1-4.1,2.1-7.5,3.3-9.1c0.9-1.2,2.2-2.1,3.6-2.4l5.2-1.2h0.1c7,6.1,8.5-0.6,8.5-0.7l3,3.1c1.3,1.2,3.3,4.2,3.9,6.2
				c0.1,0.2,0.1,0.5,0.2,0.7l0.4,4.8l0.8,10.2L86.5,215.3z"/>
			<path class="st11" d="M110.8,164.5l-8.3,11.9l-25.7-5.6l11.4,22.7l12.9,1.9c3.6,0.5,7.2-1.3,9-4.5l11-19.1L110.8,164.5z"/>
			<path class="st4" d="M121.2,171.8l11.1-7.6c0.5-0.4,0.5-1.3-0.1-1.5c-2.4-1.2-6.7-2.1-7.7-2.1c-1.4,0.1-7.3,1.6-7.3,1.6l0.5-2.7
				c0.1-0.7-0.3-1.4-0.9-1.5l0,0c-0.9-0.2-1.9,0.1-2.4,0.9l-3.6,5.5L121.2,171.8z"/>
			<path class="st11" d="M83.9,180.8l-12.3,7.4l-13.7-9.5l-1.8,20.7l6.6,5.6c3.1,2,7.1,1.9,10-0.3l17.7-12.7L83.9,180.8z"/>
			<path class="st4" d="M90.4,191.9l13.2-2.2c0.7-0.1,0.9-0.9,0.5-1.4c-1.8-2.1-5.2-4.8-6.2-5.1c-1.4-0.5-7.3-1.6-7.3-1.6l1.6-2.2
				c0.4-0.6,0.3-1.4-0.2-1.8l0,0c-0.7-0.6-1.8-0.7-2.5-0.1l-5.5,3.5L90.4,191.9z"/>
		</g>
		<path class="st5" d="M68.8,146.9c0,0-3.6,6.5-1.1,6.6s4.7-3.3,4.7-3.3s-0.8,1.8,0.7,2.1c1.5,0.2,3.8-2.8,3.8-2.8s0.4,1.5,2.3,0.7
			c1.9-0.8,3.4-4.6,3.4-4.6S72.4,141.8,68.8,146.9z"/>
		<path class="st12" d="M90.4,191.9c0,0-16,14.8-22.6,14.5c-6.7-0.4-11.6-8.3-11.6-8.3"/>
		<path class="st12" d="M66.6,182.6c0,0,2.9,4.6,5.2,4.3s11.3-5.6,11.3-5.6"/>
		<path class="st12" d="M61.7,174.5c0,0,3.6,1.9,3.9,5.5"/>
	</g>
	<g>
		<g>
			<ellipse class="st5" cx="130.1" cy="99.4" rx="8.1" ry="8.4"/>
			<path class="st13" d="M148.5,70.8c0,5-1.9,9.5-4.9,12.9c-1.6,1.7-2.8,3.7-3.7,5.9c-0.7,1.8-1.1,3.7-1.3,5.7c0,0.4,0,0.8,0,1.2
				h-17c0-0.4,0-0.8,0-1.2c-0.3-4.2-1.9-8.3-4.7-11.4c-2.9-3.2-4.8-7.4-5.1-12c0-0.6,0-1.3,0-1.9c0.4-10,8.6-18.1,18.3-18.1
				c2.1,0,4.2,0.4,6.1,1.1C143.4,55.4,148.5,62.5,148.5,70.8z"/>
			<rect x="121.8" y="96.4" class="st5" width="16.8" height="5.1"/>
			<path class="st14" d="M138.7,98.2h-17c-0.8,0-1.4-0.7-1.4-1.5l0,0c0-0.8,0.7-1.5,1.4-1.5h17c0.8,0,1.4,0.7,1.4,1.5l0,0
				C140.2,97.5,139.5,98.2,138.7,98.2z"/>
			<path class="st14" d="M138.7,103h-17c-0.8,0-1.4-0.7-1.4-1.5l0,0c0-0.8,0.7-1.5,1.4-1.5h17c0.8,0,1.4,0.7,1.4,1.5l0,0
				C140.2,102.3,139.5,103,138.7,103z"/>
			<path class="st15" d="M141.9,65.4c0,9-7,16.2-15.7,16.2c-6.4,0-12-4-14.4-9.7c0-0.6,0-1.3,0-1.9c0.4-10,8.6-18.1,18.3-18.1
				c2.1,0,4.2,0.4,6.1,1.1C139.7,55.9,141.9,60.3,141.9,65.4z"/>
		</g>
		<polygon class="st15" points="129.4,46.4 124.2,34.6 135.6,30.5 		"/>
		<polygon class="st15" points="118.2,49.6 110.6,43.7 108.3,51.2 		"/>
		<polygon class="st15" points="141.5,47.6 150.6,44.3 147.7,39.7 		"/>
		<path class="st1" d="M122.7,70.5c0,0,0.4,6.4,8,6.4s9.7-7.4,5-7.6c-3.7-0.2-5.2,3.8-5.2,5.7c0,1.9,0,16.9,0,16.9"/>
	</g>
</g>
<g id="DESIGNED_BY_FREEPIK">
</g>
</svg>
