<?xml version="1.0" encoding="utf-8"?>
<!-- Generator: Adobe Illustrator 24.1.1, SVG Export Plug-In . SVG Version: 6.00 Build 0)  -->
<svg version="1.1" xmlns="http://www.w3.org/2000/svg" xmlns:xlink="http://www.w3.org/1999/xlink" x="0px" y="0px"
	 viewBox="0 0 208.5 185.3" style="enable-background:new 0 0 208.5 185.3;" xml:space="preserve">
<style type="text/css">
	.st0{display:none;}
	.st1{display:inline;}
	.st2{fill:#407BFF;}
	.st3{opacity:0.9;fill:#FFFFFF;}
	.st4{fill:#EBEBEB;}
	.st5{fill:#FAFAFA;}
	.st6{fill:#E0E0E0;}
	.st7{opacity:0.8;}
	.st8{fill:#F5F5F5;}
	.st9{fill:#F0F0F0;}
	.st10{fill:#E6E6E6;}
	.st11{fill:#263238;}
	.st12{opacity:0.6;fill:#FFFFFF;}
	.st13{opacity:0.3;}
	.st14{fill:#FFB573;}
	.st15{opacity:0.2;}
	.st16{fill:#FFFFFF;}
	.st17{fill:#ED893E;}
	.st18{opacity:0.3;fill:#263238;}
	.st19{opacity:0.1;fill:#FFFFFF;}
	.st20{opacity:0.2;fill:#FFFFFF;}
	.st21{opacity:0.5;fill:#407BFF;}
	.st22{opacity:0.6;fill:#407BFF;}
	.st23{opacity:0.1;}
	.st24{opacity:0.7;fill:#FFFFFF;}
</style>
<g id="Background_Complete">
</g>
<g id="Background_Simple" class="st0">
	<g class="st1">
		<path class="st2" d="M285.9,101.9c4.2-36.1-53.7-129.3-105-157.1C114.4-91.2,32.6-67.9,0.7,7.6c-29.6,70.2,13.5,136,84.2,153.5
			C147.9,176.6,282.9,145.5,285.9,101.9z"/>
		<path class="st3" d="M285.9,101.9c4.2-36.1-53.7-129.3-105-157.1C114.4-91.2,32.6-67.9,0.7,7.6c-29.6,70.2,13.5,136,84.2,153.5
			C147.9,176.6,282.9,145.5,285.9,101.9z"/>
	</g>
</g>
<g id="Shadow_1_">
</g>
<g id="Character_1_">
</g>
<g id="Desk">
	<g>
		<g>
			<rect x="6.7" y="138.3" class="st4" width="189" height="0.1"/>
			<rect x="155.8" y="142.6" class="st4" width="19.2" height="0.1"/>
			<rect x="26.6" y="141.5" class="st4" width="17.8" height="0.1"/>
			<rect x="150" y="140.9" class="st4" width="7.3" height="0.1"/>
			<rect x="126.6" y="143.4" class="st4" width="5.3" height="0.1"/>
			<rect x="109.9" y="143.4" class="st4" width="13.4" height="0.1"/>
			<rect x="80.6" y="141.8" class="st4" width="21.5" height="0.1"/>
			<path class="st4" d="M96.4,121.4h-73c-1.2,0-2.2-1-2.2-2.2V16.6c0-1.2,1-2.2,2.2-2.2h73c1.2,0,2.2,1,2.2,2.2v102.6
				C98.5,120.5,97.5,121.4,96.4,121.4z M23.3,14.6c-1.1,0-2.1,0.9-2.1,2.1v102.6c0,1.1,0.9,2.1,2.1,2.1h73c1.1,0,2.1-0.9,2.1-2.1
				V16.6c0-1.1-0.9-2.1-2.1-2.1H23.3z"/>
			<path class="st4" d="M178.1,121.4h-73c-1.2,0-2.2-1-2.2-2.2V16.6c0-1.2,1-2.2,2.2-2.2h73c1.2,0,2.2,1,2.2,2.2v102.6
				C180.3,120.5,179.3,121.4,178.1,121.4z M105.1,14.6c-1.1,0-2.1,0.9-2.1,2.1v102.6c0,1.1,0.9,2.1,2.1,2.1h73
				c1.1,0,2.1-0.9,2.1-2.1V16.6c0-1.1-0.9-2.1-2.1-2.1H105.1z"/>
		</g>
		<g>
			<g>
				<g>
					<rect x="115.8" y="26.1" class="st4" width="38.5" height="112.2"/>
					
						<rect x="81.3" y="65.5" transform="matrix(-1.836970e-16 1 -1 -1.836970e-16 217.2823 -52.8991)" class="st5" width="107.7" height="33.3"/>
				</g>
				<g>
					<rect x="76.2" y="26.1" class="st4" width="38.5" height="112.2"/>
					
						<rect x="114.7" y="26.5" transform="matrix(-1 -1.224647e-16 1.224647e-16 -1 230.5386 164.3831)" class="st6" width="1.2" height="111.3"/>
					
						<rect x="41.6" y="65.5" transform="matrix(-1.836970e-16 1 -1 -1.836970e-16 177.6394 -13.2562)" class="st5" width="107.7" height="33.3"/>
				</g>
				<path class="st6" d="M171.9,25.3H58.6c-0.3,0-0.5-0.2-0.5-0.5l0,0c0-0.3,0.2-0.5,0.5-0.5h113.3c0.3,0,0.5,0.2,0.5,0.5l0,0
					C172.4,25,172.2,25.3,171.9,25.3z"/>
				
					<rect x="134" y="12.8" transform="matrix(-1.836970e-16 1 -1 -1.836970e-16 164.5278 -105.6536)" class="st6" width="2.1" height="33.3"/>
				
					<rect x="133.3" y="13.5" transform="matrix(-1.836970e-16 1 -1 -1.836970e-16 165.263 -104.9184)" class="st6" width="3.6" height="33.3"/>
				
					<rect x="91.5" y="15.7" transform="matrix(-1.836970e-16 1 -1 -1.836970e-16 127.7625 -63.133)" class="st6" width="7.9" height="33.3"/>
				<g class="st7">
					<rect x="148.6" y="21.9" class="st8" width="10.7" height="115"/>
					<rect x="151.4" y="21.9" class="st9" width="5" height="115"/>
					<rect x="154.3" y="21.9" class="st8" width="10.7" height="115"/>
					<rect x="157.1" y="21.9" class="st9" width="5" height="115"/>
					<rect x="159.7" y="21.9" class="st8" width="10.7" height="115"/>
				</g>
				<g class="st7">
					<rect x="59.9" y="21.9" class="st8" width="15.5" height="115"/>
					<rect x="64" y="21.9" class="st9" width="7.3" height="115"/>
					<rect x="68.2" y="21.9" class="st8" width="15.5" height="115"/>
					<rect x="72.3" y="21.9" class="st9" width="7.3" height="115"/>
					<rect x="75.9" y="21.9" class="st8" width="15.5" height="115"/>
				</g>
			</g>
			<g>
				<rect x="27.6" y="33.7" class="st9" width="25" height="56.2"/>
				
					<rect x="52.5" y="33.7" transform="matrix(-1 -1.224647e-16 1.224647e-16 -1 105.8451 123.5771)" class="st10" width="0.8" height="56.2"/>
				
					<rect x="14.2" y="51.6" transform="matrix(-1.836970e-16 1 -1 -1.836970e-16 101.8357 21.7413)" class="st5" width="51.7" height="20.4"/>
			</g>
			<g>
				<path class="st8" d="M54.1,117.7H28.5c-1.2,0-2.1-1-2.1-2.1l0,0c0-1.2,1-2.1,2.1-2.1h25.6c1.2,0,2.1,1,2.1,2.1l0,0
					C56.2,116.8,55.3,117.7,54.1,117.7z"/>
				<polygon class="st10" points="34.6,117.7 30.4,117.7 25.6,138.3 29.9,138.3 				"/>
				<polygon class="st10" points="43,117.7 38.8,117.7 36.5,138.3 40.7,138.3 				"/>
				<polygon class="st10" points="47.9,117.7 52.1,117.7 56.9,138.3 52.7,138.3 				"/>
			</g>
		</g>
		<ellipse id="_x3C_Path_x3E__340_" class="st8" cx="101.3" cy="151.1" rx="73.3" ry="4.3"/>
		<g>
			<g>
				<path class="st11" d="M125,110H94c-1,0-1.7-0.8-1.7-1.7v0c0-1,0.8-1.7,1.7-1.7h31c1,0,1.7,0.8,1.7,1.7v0
					C126.8,109.2,126,110,125,110z"/>
				<g>
					<polygon class="st2" points="125.4,148.8 126.8,148.8 125.2,110 123.2,110 					"/>
					<polygon class="st12" points="125.4,148.8 126.8,148.8 125.2,110 123.2,110 					"/>
				</g>
				<g>
					<polygon class="st2" points="112.4,148.8 110.9,148.8 112.6,110 114.5,110 					"/>
					<polygon class="st12" points="112.4,148.8 110.9,148.8 112.6,110 114.5,110 					"/>
				</g>
				<g>
					<polygon class="st2" points="106.7,148.8 108.2,148.8 106.5,110 104.6,110 					"/>
					<polygon class="st12" points="106.7,148.8 108.2,148.8 106.5,110 104.6,110 					"/>
				</g>
				<g>
					<polygon class="st2" points="93.7,148.8 92.3,148.8 93.9,110 95.9,110 					"/>
					<polygon class="st12" points="93.7,148.8 92.3,148.8 93.9,110 95.9,110 					"/>
				</g>
				<g class="st13">
					<polygon class="st2" points="125.2,110 123.2,110 123.3,111.6 125.2,111.6 					"/>
					<polygon class="st2" points="112.5,111.6 114.4,111.6 114.5,110 112.6,110 					"/>
					<polygon class="st2" points="104.6,110 104.7,111.6 106.6,111.6 106.5,110 					"/>
					<polygon class="st2" points="93.9,111.6 95.8,111.6 95.9,110 93.9,110 					"/>
				</g>
			</g>
			<g>
				<g>
					<g>
						<g>
							<g>
								<polygon class="st14" points="105.8,143.1 102.6,144.8 97.6,138 100.8,136.3 								"/>
								<path class="st11" d="M101.5,143.8l3.3-2.3c0.1-0.1,0.3-0.1,0.4,0l2,2.5c0.2,0.3,0.1,0.7-0.2,0.9c-1.2,0.8-1.7,1.1-3.2,2
									c-0.9,0.6-3.2,1.9-4.6,2.5c-1.4,0.6-2-0.8-1.4-1.2c1.3-0.9,3-2.7,3.3-3.9C101.2,144.1,101.3,143.9,101.5,143.8z"/>
								<g>
									<polygon class="st15" points="100.8,136.3 97.6,138 100,141.3 103.1,139.5 									"/>
								</g>
								<g>
									<path class="st2" d="M108.5,96c0,0-24.9-0.8-24.9,9.6c-0.1,14.9,14,34.5,14,34.5l5.5-3.7c0,0-9.7-14.3-9.8-25.9
										c7.3-2.1,24.6-0.8,26.8-6.8c1.8-5,0.9-7.7,0.9-7.7H108.5z"/>
									<path class="st15" d="M108.5,96c0,0-24.9-0.8-24.9,9.6c-0.1,14.9,14,34.5,14,34.5l5.5-3.7c0,0-9.7-14.3-9.8-25.9
										c7.3-2.1,24.6-0.8,26.8-6.8c1.8-5,0.9-7.7,0.9-7.7H108.5z"/>
								</g>
								<polygon class="st11" points="104.7,137.4 98.1,141.4 96,139.3 103.2,134.7 								"/>
								<path class="st2" d="M100.8,145c0.3-0.2,0.5-0.5,0.7-0.7c0,0,0-0.1,0-0.1c0,0,0-0.1-0.1-0.1c-0.1,0-1.4,0-1.6,0.4
									c-0.1,0.1-0.1,0.2,0,0.3c0.1,0.2,0.2,0.3,0.3,0.3C100.3,145.3,100.6,145.2,100.8,145z M101.2,144.4
									c-0.5,0.5-0.9,0.7-1.1,0.7c-0.1,0-0.2-0.1-0.2-0.2c0-0.1,0-0.1,0-0.2C100.1,144.5,100.7,144.4,101.2,144.4z"/>
								<path class="st2" d="M101.5,144.4C101.5,144.4,101.5,144.3,101.5,144.4c0-0.1,0-0.1,0-0.1c0,0-0.6-0.9-1.1-1
									c-0.1,0-0.3,0-0.4,0.1c-0.1,0.1-0.2,0.2-0.1,0.4C100.2,144.1,101,144.4,101.5,144.4C101.5,144.4,101.5,144.4,101.5,144.4z
									 M100.2,143.4c0.1,0,0.1-0.1,0.2,0c0.3,0,0.7,0.5,0.9,0.8c-0.4,0-1-0.3-1.1-0.5C100.1,143.6,100.1,143.5,100.2,143.4
									C100.2,143.5,100.2,143.4,100.2,143.4z"/>
							</g>
							<g>
								<polygon class="st14" points="99.9,147.3 96.3,147.1 95.7,138.6 99.3,138.8 								"/>
								<path class="st11" d="M96.2,146.5l4.1-0.1c0.1,0,0.3,0.1,0.3,0.2l0.3,3.2c0,0.3-0.3,0.7-0.6,0.7c-1.4,0-2.1,0-3.9,0
									c-1.1,0-3.3,0.2-4.8,0c-1.5-0.2-1.3-1.7-0.6-1.7c1.6-0.1,3.6-1.2,4.6-2C95.8,146.6,96,146.5,96.2,146.5z"/>
								<path class="st2" d="M95,147.2c0.3,0,0.7-0.1,1-0.2c0,0,0.1,0,0.1-0.1c0,0,0-0.1,0-0.1c-0.1-0.1-1.2-0.7-1.6-0.6
									c-0.1,0-0.2,0.1-0.2,0.2c0,0.2,0,0.3,0.1,0.5C94.4,147.1,94.7,147.2,95,147.2z M95.7,146.9c-0.6,0.1-1.1,0.1-1.3,0
									c-0.1-0.1-0.1-0.2-0.1-0.3c0-0.1,0-0.1,0.1-0.1C94.7,146.4,95.3,146.6,95.7,146.9z"/>
								<path class="st2" d="M95.9,147C95.9,147,95.9,147,95.9,147C96,147,96,147,95.9,147c0.1-0.1,0.1-1.2-0.2-1.5
									c-0.1-0.1-0.2-0.1-0.4-0.1c-0.2,0-0.3,0.1-0.3,0.3C94.9,146.1,95.5,146.8,95.9,147C95.9,147,95.9,147,95.9,147z M95.4,145.6
									c0.1,0,0.1,0,0.2,0.1c0.2,0.2,0.3,0.8,0.3,1.1c-0.3-0.3-0.7-0.8-0.7-1.1C95.2,145.6,95.2,145.6,95.4,145.6
									C95.3,145.6,95.4,145.6,95.4,145.6z"/>
								<g>
									<polygon class="st15" points="99.3,138.8 95.7,138.6 96.1,143.5 99.7,143.5 									"/>
								</g>
								<path class="st2" d="M117.4,96c0,0-26,2.5-25.1,10.3c1.4,11.3,2,35.6,2,35.6l6.6,0.3c0,0,2.8-21.9,1.4-33.5
									c6.7,0,23.2,0.5,24.7-3.6c1.3-3.6,0.9-9.1,0.9-9.1H117.4z"/>
								<polygon class="st11" points="101.7,142.5 93.7,142.2 93.5,138.7 102.2,139.3 								"/>
							</g>
							<g>
								<path class="st14" d="M111.6,73c0,0.6-0.1,1.2-0.2,1.8c-0.1,0.6-0.1,1.1-0.2,1.7c-0.2,1.1-0.4,2.3-0.7,3.4
									c-0.6,2.3-1.2,4.6-2.5,6.9c-0.3,0.6-0.7,1.2-1.2,1.7c-0.5,0.6-1.1,1.2-1.7,1.6c-1.3,0.9-2.8,1.3-4.2,1.4
									c-1.4,0.1-2.7-0.1-3.9-0.4c-0.6-0.2-1.2-0.3-1.8-0.6c-0.3-0.1-0.6-0.2-0.8-0.4c-0.3-0.1-0.5-0.3-0.9-0.4l1-2.5l0.7,0.1
									l0.8,0.1c0.5,0,1,0.1,1.5,0.1c1,0,1.9-0.1,2.7-0.3c0.8-0.2,1.5-0.6,1.9-1c0.2-0.2,0.4-0.4,0.6-0.7c0.2-0.3,0.4-0.7,0.6-1.1
									c0.4-0.8,0.7-1.7,1-2.7c0.3-1,0.5-2,0.7-3c0.2-1,0.4-2.1,0.5-3.1l0.2-1.6c0.1-0.5,0.1-1.1,0.2-1.5L111.6,73z"/>
								<g>
									<path class="st11" d="M111.6,70c-2.7-2.6-5.9-1.1-7.2,3.8c-1.3,4.8-1.5,7.9-1.5,7.9l8.4,1.7
										C112.8,78.8,114.3,72.6,111.6,70z"/>
								</g>
								<path class="st13" d="M108.9,75.2c0.6-0.5,2.3,1.9,3.4,4.9c-0.3,1.1-0.6,2.2-1,3.3l-5.1-1C106.6,79.3,107.5,76.4,108.9,75.2
									z"/>
								<path class="st14" d="M94,86.2l-1.9-0.7l-0.1,4c0,0,3.2,1.4,3.8-0.2l-0.2-1C95.5,87.4,94.9,86.6,94,86.2z"/>
								<polygon class="st14" points="89.9,85.5 88.8,88.9 92.1,89.5 92.2,85.4 								"/>
								<path class="st11" d="M92.8,88.2c-0.1,0-0.2,0-0.2-0.1l-3.4-6.5c-0.1-0.1,0-0.2,0.1-0.3c0.1-0.1,0.2,0,0.3,0.1l3.4,6.5
									c0.1,0.1,0,0.2-0.1,0.3C92.8,88.2,92.8,88.2,92.8,88.2z"/>
							</g>
							<path class="st11" d="M111.3,67.4l4-1.2l5.2-0.2c1.6-0.1,3.1,0.9,3.6,2.5c1,3,1.9,7.4,2.6,11.2c0.7,4.2,1.1,10.6,1.2,16.4
								h-19.4c-0.4-12-2-19.2-2.7-23.1c-0.3-1.6,0.5-3.2,2-3.9L111.3,67.4z"/>
							<path class="st13" d="M126.7,79.6c-0.5-3-1.2-6.3-1.9-9.1c-3.5-0.6-5.1,7-4.1,10.7c1,3.8,6.5,1.5,6.5,1.5
								C127,81.6,126.8,80.6,126.7,79.6z"/>
							<path class="st11" d="M114.6,58.4c0.8,2,0.3,5.8-1.3,4.7C111.7,62,114.1,57.1,114.6,58.4z"/>
							<path class="st14" d="M113.7,59.7l-1.6,2.4l-2.1,3.3c0.1,0.1,0.5,0.6,0.7,1c0.4,0.8,0.7,1.4-0.9,2.5
								c-0.4,0.2-0.6,0.7-0.5,1.1c0.1,0.5,0.6,1,2.4,0.7c2.1-0.4,3.4-1.5,4.5-2.5c0.6-0.6,0.5-1-0.1-1.7
								C114.4,64.7,113.9,61.9,113.7,59.7z"/>
							<path class="st15" d="M110.5,64.5l1.3-2.3c0,0.1,0.1,0.1,0.1,0.2c0.1,0.2,0.2,0.6,0.3,0.9c0.2,1-0.6,2.5-1.4,3.2
								c0-0.1-0.1-0.1-0.1-0.2c-0.2-0.3-0.4-0.8-0.6-0.9c0,0,0,0-0.1,0L110.5,64.5z"/>
							<path class="st11" d="M102.7,56.8c-0.5,1.1,1.2,4.2,3.2,3C107.9,58.5,103.6,54.9,102.7,56.8z"/>
							<path class="st16" d="M112.2,71.2c-0.1,0-0.1,0-0.1-0.1c-0.1-0.9-0.7-1.5-1.4-2.2c-0.9-0.9-1.9-1.8-2.2-3.7
								c0-0.1,0-0.1,0.1-0.1c0.1,0,0.1,0,0.1,0.1c0.3,1.8,1.3,2.8,2.1,3.6c0.7,0.7,1.4,1.3,1.5,2.3
								C112.3,71.2,112.3,71.2,112.2,71.2C112.2,71.2,112.2,71.2,112.2,71.2z"/>
							<path class="st14" d="M113,55.7c0.7,3.4,1.3,5.4,0.1,7.6c-1.8,3.3-6.5,2.8-8.2-0.3c-1.6-2.8-2.5-8,0.4-10.2
								C108.3,50.6,112.3,52.3,113,55.7z"/>
							<path class="st11" d="M114.1,58.1c-1.2,1.7-4.3-1.4-4-3.5c-3.1,1.7-6.4,4.1-8.4,2.1c-2.3-2.3-1.7-5.5,1-5.8
								c-0.5,0.9,2.3,1.4,3.7-0.1c2.5-2.5,6.4-1.9,6.3,0C114.6,50.1,116.6,54.4,114.1,58.1z"/>
							<path class="st11" d="M112.3,51.4c0.7-0.5,0.2-2.5-1.4-3.1C112.5,48.6,114.2,49.8,112.3,51.4z"/>
							<path class="st14" d="M115.1,57.9c0,0.9-0.3,1.6-0.7,2.2c-0.7,0.8-1.7,0.2-1.9-0.8c-0.2-0.9,0.1-2.2,0.9-2.6
								C114.3,56.3,115.1,57,115.1,57.9z"/>
							<path class="st11" d="M108.1,58.5c0.1,0.3,0,0.6-0.2,0.6c-0.2,0.1-0.4-0.1-0.5-0.4c-0.1-0.3,0-0.6,0.2-0.6
								C107.8,58.1,108,58.2,108.1,58.5z"/>
							<path class="st11" d="M105,59.7c0.1,0.3,0,0.6-0.2,0.6c-0.2,0.1-0.4-0.1-0.5-0.4c-0.1-0.3,0-0.6,0.2-0.6
								C104.7,59.2,104.9,59.4,105,59.7z"/>
							<path class="st17" d="M106.1,59.5c0,0,0,1.6-0.3,2.5c0.6,0.2,1.2-0.3,1.2-0.3L106.1,59.5z"/>
							<path class="st11" d="M107.7,63.2c1.1-0.4,1.5-1.3,1.5-1.3c0,0,0-0.1,0-0.1c0,0-0.1,0-0.1,0c0,0-0.4,1-1.7,1.3
								c0,0-0.1,0.1-0.1,0.1c0,0,0.1,0.1,0.1,0.1C107.5,63.3,107.6,63.2,107.7,63.2z"/>
							<path class="st11" d="M108.4,57.3C108.4,57.3,108.4,57.3,108.4,57.3c0.1-0.1,0.1-0.2,0-0.3c-0.8-0.5-1.5-0.2-1.5-0.2
								c-0.1,0-0.1,0.1-0.1,0.2c0,0.1,0.1,0.1,0.2,0.1c0,0,0.6-0.3,1.2,0.1C108.3,57.3,108.3,57.3,108.4,57.3z"/>
							<path class="st11" d="M104.4,57.9C104.4,57.8,104.4,57.8,104.4,57.9c0-0.2-0.1-0.2-0.2-0.2c-0.9,0.4-1,1.1-1,1.2
								c0,0.1,0,0.2,0.1,0.2c0.1,0,0.2,0,0.2-0.1c0,0,0.1-0.6,0.8-0.9C104.4,58,104.4,57.9,104.4,57.9z"/>
							<g>
								<path class="st14" d="M123.4,68.6c0.4,0.6,0.7,1.2,1,1.8c0.3,0.6,0.6,1.2,0.9,1.8c0.6,1.2,1.1,2.4,1.7,3.6
									c0.5,1.2,1,2.5,1.4,3.8c0.4,1.3,0.7,2.7,0.9,4.3c0.1,0.8,0.1,1.6-0.1,2.5c-0.1,0.4-0.2,1-0.5,1.6c-0.3,0.6-0.7,1.1-1.2,1.5
									c-0.5,0.4-1,0.7-1.5,0.9c-0.5,0.2-1,0.3-1.4,0.4c-0.9,0.2-1.7,0.1-2.4,0.1c-0.7-0.1-1.5-0.2-2.1-0.3c-0.7-0.2-1.3-0.3-2-0.6
									c-1.3-0.4-2.5-0.9-3.7-1.6l1-2.5c2.4,0.4,4.9,0.9,7,0.7c0.5,0,1-0.1,1.4-0.2c0.4-0.1,0.6-0.3,0.6-0.3c0,0,0,0,0,0
									c0,0,0,0,0-0.2c0-0.3,0-0.8-0.1-1.3c-0.1-1-0.5-2.1-0.8-3.2c-0.4-1.1-0.8-2.2-1.3-3.3c-0.5-1.1-1-2.2-1.6-3.3
									c-0.3-0.5-0.6-1.1-0.8-1.6l-0.9-1.6L123.4,68.6z"/>
								<g>
									<path class="st11" d="M121.7,66c-3.7-0.6-5.4,2.6-3.7,7.3c1.7,4.7,3.3,7.3,3.3,7.3l7.9-3.5C127.7,72.5,125.4,66.6,121.7,66
										z"/>
								</g>
								<path class="st14" d="M113.3,85.3l-1.7,0.5l2.4,3.4c0,0,3.5-1.3,2.8-2.8l-0.9-0.5C115.2,85.5,114.2,85,113.3,85.3z"/>
								<polygon class="st14" points="110.1,88.2 111.8,89.9 114,89.3 111.6,85.9 								"/>
							</g>
						</g>
					</g>
				</g>
			</g>
			<g>
				<ellipse class="st16" cx="113.8" cy="58.4" rx="0.5" ry="0.7"/>
				<polygon class="st16" points="114.3,60.1 113.9,60.1 113.8,58.6 114.4,58.4 				"/>
				<path class="st16" d="M116.4,88.7c-1.1,0-2.1-0.2-2.8-0.7c-0.4-0.4-0.7-1-0.7-1.7c0-1.8,0.4-3.3,0.7-4.6
					c0.5-2.1,0.9-3.7-0.3-5.7c-2-3.2-1.4-7.6,0-10.4c1.1-2.1,0.7-4.5,0.6-5.4c0-0.1,0-0.2,0-0.3c0-0.1,0-0.1,0.1-0.1
					c0.1,0,0.1,0,0.1,0.1c0,0.1,0,0.1,0,0.3c0.1,0.9,0.5,3.3-0.6,5.5c-1.4,2.7-2,7.1,0,10.2c1.3,2.1,0.9,3.8,0.3,5.9
					c-0.3,1.3-0.7,2.8-0.7,4.5c0,0.7,0.2,1.2,0.6,1.5c1,0.9,3.3,0.7,5.5,0.5c1-0.1,2-0.2,2.9-0.2c0.1,0,0.1,0,0.1,0.1
					c0,0.1,0,0.1-0.1,0.1c-0.9,0-1.9,0.1-2.8,0.2C118.3,88.6,117.3,88.7,116.4,88.7z"/>
				<path class="st16" d="M126.5,87.9h-4c-0.2,0-0.4,0.2-0.4,0.4l0,0c0,0.2,0.2,0.4,0.4,0.4h4c0.2,0,0.4-0.2,0.4-0.4l0,0
					C126.9,88,126.7,87.9,126.5,87.9z"/>
			</g>
		</g>
		<g>
			<g>
				<g>
					<path class="st2" d="M153.7,91.1H48.8c-0.7,0-1.3-0.6-1.3-1.3l0,0c0-0.7,0.6-1.3,1.3-1.3h104.8c0.7,0,1.3,0.6,1.3,1.3l0,0
						C154.9,90.6,154.4,91.1,153.7,91.1z"/>
					<path class="st18" d="M153.7,91.1h-24.5c-0.7,0-1.3-0.6-1.3-1.3l0,0c0-0.7,0.6-1.3,1.3-1.3h24.5c0.7,0,1.3,0.6,1.3,1.3l0,0
						C154.9,90.6,154.4,91.1,153.7,91.1z"/>
				</g>
				<g>
					<g>
						<polygon class="st11" points="152.5,150.5 154.9,150.5 152.2,91.1 148.8,91.1 						"/>
						<polygon class="st19" points="152.5,150.5 154.9,150.5 152.2,91.1 148.8,91.1 						"/>
					</g>
					<g>
						<polygon class="st11" points="130.3,150.5 127.9,150.5 130.7,91.1 134,91.1 						"/>
						<polygon class="st20" points="130.3,150.5 127.9,150.5 130.7,91.1 134,91.1 						"/>
					</g>
					<g>
						<polygon class="st11" points="72.2,150.5 74.6,150.5 71.9,91.1 68.5,91.1 						"/>
						<polygon class="st19" points="72.2,150.5 74.6,150.5 71.9,91.1 68.5,91.1 						"/>
					</g>
					<g>
						<polygon class="st11" points="50,150.5 47.6,150.5 50.4,91.1 53.7,91.1 						"/>
						<polygon class="st20" points="50,150.5 47.6,150.5 50.4,91.1 53.7,91.1 						"/>
					</g>
					<g>
						<rect x="51.1" y="94.3" class="st11" width="80.6" height="5"/>
						<rect x="51.1" y="94.3" class="st20" width="80.6" height="5"/>
					</g>
				</g>
			</g>
			<g>
				<g>
					<path class="st2" d="M64.3,85.3c-0.3,0-0.5,0.2-0.5,0.5v2.3c0,0.3,0.2,0.5,0.5,0.5h17.1c0.1,0,0.2-0.1,0.2-0.2v-3
						c0-0.1-0.1-0.2-0.2-0.2H64.3z"/>
					<path class="st3" d="M81.7,85.6H75c-0.4,0-0.8,0.4-0.8,0.8v1.1c0,0.4,0.4,0.8,0.8,0.8h6.7V85.6z"/>
					<g>
						<path class="st2" d="M72.4,85.3H56.9c-0.8,0-1.4,0.6-1.4,1.4v0.5c0,0.8,0.6,1.4,1.4,1.4h15.6c0.8,0,1.4-0.6,1.4-1.4v-0.5
							C73.8,85.9,73.2,85.3,72.4,85.3z"/>
						<path class="st15" d="M72.4,85.3H56.9c-0.8,0-1.4,0.6-1.4,1.4v0.5c0,0.8,0.6,1.4,1.4,1.4h15.6c0.8,0,1.4-0.6,1.4-1.4v-0.5
							C73.8,85.9,73.2,85.3,72.4,85.3z"/>
						<path class="st21" d="M64.4,85.3h-1.9c-0.3,0-0.6,0.3-0.6,0.6v2.2c0,0.3,0.3,0.6,0.6,0.6h1.9c0.3,0,0.6-0.3,0.6-0.6v-2.2
							C65,85.5,64.7,85.3,64.4,85.3z"/>
						<path class="st21" d="M68.2,85.3h-1.9c-0.3,0-0.6,0.3-0.6,0.6v2.2c0,0.3,0.3,0.6,0.6,0.6h1.9c0.3,0,0.6-0.3,0.6-0.6v-2.2
							C68.8,85.5,68.5,85.3,68.2,85.3z"/>
					</g>
				</g>
				<g>
					<path class="st2" d="M61.2,81.2c-0.3,0-0.5,0.2-0.5,0.5v3.1c0,0.3,0.2,0.5,0.5,0.5h18.6c0.1,0,0.2-0.1,0.2-0.2v-3.8
						c0-0.1-0.1-0.2-0.2-0.2H61.2z"/>
					<path class="st3" d="M80,81.5h-8.1c-0.4,0-0.8,0.4-0.8,0.8v1.9c0,0.4,0.4,0.8,0.8,0.8H80V81.5z"/>
					<g>
						<path class="st2" d="M69.3,81.2H56.5c-0.8,0-1.4,0.6-1.4,1.4v1.3c0,0.8,0.6,1.4,1.4,1.4h12.8c0.8,0,1.4-0.6,1.4-1.4v-1.3
							C70.7,81.8,70.1,81.2,69.3,81.2z"/>
						<path class="st20" d="M69.3,81.2H56.5c-0.8,0-1.4,0.6-1.4,1.4v1.3c0,0.8,0.6,1.4,1.4,1.4h12.8c0.8,0,1.4-0.6,1.4-1.4v-1.3
							C70.7,81.8,70.1,81.2,69.3,81.2z"/>
						<path class="st22" d="M68.3,82h-9.6c-0.5,0-0.9,0.4-0.9,0.9v0.8c0,0.5,0.4,0.9,0.9,0.9h9.6c0.5,0,0.9-0.4,0.9-0.9v-0.8
							C69.2,82.4,68.8,82,68.3,82z"/>
					</g>
				</g>
				<g>
					<path class="st2" d="M66.7,79.2c-0.3,0-0.5,0.1-0.5,0.3v1.3c0,0.2,0.2,0.3,0.5,0.3h17.1c0.1,0,0.2,0,0.2-0.1v-1.8
						c0-0.1-0.1-0.1-0.2-0.1H66.7z"/>
					<path class="st3" d="M84,79.4h-6.9c-0.3,0-0.6,0.3-0.6,0.6v0.4c0,0.3,0.3,0.6,0.6,0.6H84V79.4z"/>
					<g>
						<path class="st2" d="M75.2,79.2H58.8c-0.5,0-1,0.4-1,1v0c0,0.5,0.4,1,1,1h16.4c0.5,0,1-0.4,1-1l0,0
							C76.2,79.6,75.7,79.2,75.2,79.2z"/>
						<path class="st15" d="M75.2,79.2H58.8c-0.5,0-1,0.4-1,1v0c0,0.5,0.4,1,1,1h16.4c0.5,0,1-0.4,1-1l0,0
							C76.2,79.6,75.7,79.2,75.2,79.2z"/>
						<path class="st21" d="M60.3,79.2H60c-0.1,0-0.2,0.1-0.2,0.2V81c0,0.1,0.1,0.2,0.2,0.2h0.3c0.1,0,0.2-0.1,0.2-0.2v-1.6
							C60.5,79.3,60.4,79.2,60.3,79.2z"/>
						<path class="st21" d="M74.5,79.2h-0.3c-0.1,0-0.2,0.1-0.2,0.2V81c0,0.1,0.1,0.2,0.2,0.2h0.3c0.1,0,0.2-0.1,0.2-0.2v-1.6
							C74.8,79.3,74.7,79.2,74.5,79.2z"/>
					</g>
				</g>
				<g>
					<path class="st2" d="M63.6,76.3c-0.3,0-0.5,0.1-0.5,0.3v2.2c0,0.2,0.2,0.3,0.5,0.3h18.6c0.1,0,0.2,0,0.2-0.1v-2.6
						c0-0.1-0.1-0.1-0.2-0.1H63.6z"/>
					<path class="st3" d="M82.3,76.5H74c-0.3,0-0.6,0.3-0.6,0.6v1.2c0,0.3,0.3,0.6,0.6,0.6h8.3V76.5z"/>
					<g>
						<path class="st2" d="M72,76.3H58.5c-0.6,0-1.1,0.5-1.1,1.1v0.7c0,0.6,0.5,1.1,1.1,1.1H72c0.6,0,1.1-0.5,1.1-1.1v-0.7
							C73.1,76.8,72.6,76.3,72,76.3z"/>
						<path class="st23" d="M72,76.3H58.5c-0.6,0-1.1,0.5-1.1,1.1v0.7c0,0.6,0.5,1.1,1.1,1.1H72c0.6,0,1.1-0.5,1.1-1.1v-0.7
							C73.1,76.8,72.6,76.3,72,76.3z"/>
					</g>
				</g>
			</g>
			<path class="st16" d="M105,88H89.4c-0.2,0-0.3,0.1-0.3,0.3l0,0c0,0.2,0.1,0.3,0.3,0.3H105c0.2,0,0.3-0.1,0.3-0.3l0,0
				C105.3,88.1,105.2,88,105,88z"/>
			<g>
				<polygon class="st11" points="135.5,87.3 145.8,87.3 146.7,88.6 134.6,88.6 				"/>
				<path d="M151.4,64.3c0,0.8-0.6,1.4-1.4,1.4c-0.8,0-1.4-0.6-1.4-1.4c0-0.8,0.6-1.4,1.4-1.4C150.8,63,151.4,63.6,151.4,64.3z"/>
				<path class="st11" d="M141,88.2c-0.1,0-0.1,0-0.2,0c-0.2-0.1-0.3-0.3-0.2-0.6l9.9-23.4c0.1-0.2,0.3-0.3,0.6-0.2
					c0.2,0.1,0.3,0.3,0.2,0.6l-9.9,23.4C141.3,88.1,141.2,88.2,141,88.2z"/>
				<path class="st11" d="M150.9,64.8c-0.1,0-0.2,0-0.3-0.1l-17.9-13.4c-0.2-0.1-0.2-0.4-0.1-0.6c0.1-0.2,0.4-0.2,0.6-0.1L151.1,64
					c0.2,0.1,0.2,0.4,0.1,0.6C151.1,64.7,151,64.8,150.9,64.8z"/>
				<path class="st11" d="M152.3,64.3c0,0.8-0.6,1.4-1.4,1.4s-1.4-0.6-1.4-1.4c0-0.8,0.6-1.4,1.4-1.4S152.3,63.6,152.3,64.3z"/>
				<g>
					<circle class="st11" cx="132.9" cy="50.9" r="1.4"/>
					<g>
						<path class="st2" d="M131,57.2c-1.2,1.2-3.2,1.2-4.4,0c-1.2-1.2-1.2-3.2,0-4.4c1.2-1.2,3.2-1.2,4.4,0
							C132.2,54,132.2,56,131,57.2z"/>
						<path class="st24" d="M131,57.2c-1.2,1.2-3.2,1.2-4.4,0c-1.2-1.2-1.2-3.2,0-4.4c1.2-1.2,3.2-1.2,4.4,0
							C132.2,54,132.2,56,131,57.2z"/>
					</g>
					<path class="st11" d="M132.9,50.9c-2.6-2.6-6.8-2.6-9.3,0l9.3,9.3C135.5,57.7,135.5,53.5,132.9,50.9z"/>
				</g>
			</g>
			<g class="st15">
				<polygon class="st2" points="123.6,50.9 84.3,88.6 124.6,88.6 132.9,60.2 				"/>
				<polygon class="st24" points="123.6,50.9 84.3,88.6 124.6,88.6 132.9,60.2 				"/>
			</g>
		</g>
	</g>
</g>
</svg>
